<svg xmlns="http://www.w3.org/2000/svg" xmlns:xlink="http://www.w3.org/1999/xlink" id="svgcontent_5" height="106" width="580" overflow="hidden" class="WaveDrom"><style>text{font-size:11pt;font-style:normal;font-variant:normal;font-weight:400;font-stretch:normal;text-align:center;fill-opacity:1;font-family:Helvetica}.info{fill:#0041c4}.s1,.s2,.s3{fill:none;stroke:#000;stroke-width:1;stroke-linecap:round;stroke-linejoin:miter;stroke-miterlimit:4;stroke-opacity:1;stroke-dasharray:none}.s2,.s3{stroke-width:.5}.s3{color:#000;stroke-width:1;stroke-dasharray:1,3;stroke-dashoffset:0;marker:none;visibility:visible;display:inline;overflow:visible}.s6{fill:#000;fill-opacity:1;stroke:none}.s10,.s11,.s12,.s13,.s14,.s7,.s8,.s9{color:#000;fill:#fff;fill-opacity:1;fill-rule:nonzero;stroke:none;stroke-width:1px;marker:none;visibility:visible;display:inline;overflow:visible}.s10,.s11,.s12,.s13,.s14,.s8,.s9{fill:#ffffb4}.s10,.s11,.s12,.s13,.s14,.s9{fill:#ffe0b9}.s10,.s11,.s12,.s13,.s14{fill:#b9e0ff}.s11,.s12,.s13,.s14{fill:#ccfdfe}.s12,.s13,.s14{fill:#cdfdc5}.s13,.s14{fill:#f0c1fb}.s14{fill:#f5c2c0}</style><defs><g id="0mx"><path d="M3 20 9 0h11" class="s1"/><path d="m20 15-5 5M20 10 10 20M20 5 5 20M20 0 4 16M15 0 6 9M10 0 9 1" class="s2"/><path d="M0 20h20" class="s1"/></g><g id="0md"><path d="M8 20h10" class="s3"/><path d="M0 20h5" class="s1"/></g><g id="1mx"><path d="m3 0 6 20h11M0 0h20" class="s1"/><path d="m20 15-5 5M20 10 10 20M20 5 8 17M20 0 7 13M15 0 6 9M10 0 5 5M3.5 1.5 5 0" class="s2"/></g><g id="1mu"><path d="M0 0h5" class="s1"/><path d="M8 0h10" class="s3"/></g><g id="xxx"><path d="M0 20h20M0 0h20" class="s1"/><path d="m0 5 5-5M0 10 10 0M0 15 15 0M0 20 20 0M5 20 20 5M10 20l10-10M15 20l5-5" class="s2"/></g><g id="xm0"><path d="M0 0h4l5 20M0 20h20" class="s1"/><path d="m0 5 4-4M0 10l5-5M0 15l6-6M0 20l7-7M5 20l3-3" class="s2"/></g><g id="xm1"><path d="M0 0h20M0 20h4L9 0" class="s1"/><path d="m0 5 5-5M0 10l9-9M0 15l7-7M0 20l5-5" class="s2"/></g><g id="xmx"><path d="M0 20h20M0 0h20" class="s1"/><path d="m0 5 5-5M0 10 10 0M0 15 15 0M0 20 20 0M5 20 20 5M10 20l10-10M15 20l5-5" class="s2"/></g><g id="xmd"><path d="M0 0h4c3 10 6 20 16 20M0 20h20" class="s1"/><path d="m0 5 4-4M0 10l5.5-5.5M0 15l6.5-6.5M0 20l8-8M5 20l5-5M10 20l2.5-2.5" class="s2"/></g><g id="xmu"><path d="M0 0h20M0 20h4C7 10 10 0 20 0" class="s1"/><path d="m0 5 5-5M0 10 10 0M0 15 10 5M0 20l6-6" class="s2"/></g><g id="xmz"><path d="M0 0h4c6 10 11 10 16 10M0 20h4c6-10 11-10 16-10" class="s1"/><path d="M0 5 4.5.5M0 10l6.5-6.5M0 15l8.5-8.5M0 20 11.5 8.5" class="s2"/></g><g id="dm0"><path d="M0 20h10" class="s3"/><path d="M12 20h8" class="s1"/></g><g id="dmx"><path d="M3 20 9 0h11" class="s1"/><path d="m20 15-5 5M20 10 10 20M20 5 5 20M20 0 4 16M15 0 6 9M10 0 9 1" class="s2"/><path d="M0 20h20" class="s1"/></g><g id="um1"><path d="M0 0h10" class="s3"/><path d="M12 0h8" class="s1"/></g><g id="umx"><path d="m3 0 6 20h11M0 0h20" class="s1"/><path d="m20 15-5 5M20 10 10 20M20 5 8 17M20 0 7 13M15 0 6 9M10 0 5 5M3.5 1.5 5 0" class="s2"/></g><g id="zmx"><path d="m6 10 3 10h11M0 10h6L9 0h11" class="s1"/><path d="m20 15-5 5M20 10 10 20M20 5 8 17M20 0 7 13M15 0 6.5 8.5M10 0 9 1" class="s2"/></g><g id="gap"><path d="M7-2H3C-2-2-2 22-7 22h4C2 22 2-2 7-2z" style="fill:#fff;stroke:none"/><path d="M-7 22C-2 22-2-2 3-2M-3 22C2 22 2-2 7-2" class="s1"/></g><g id="Pclk"><path d="m-3 12 3-9 3 9c-2-1-4-1-6 0z" class="s6"/><path d="M0 20V0h20" class="s1"/></g><g id="Nclk"><path d="m-3 8 3 9 3-9C1 9-1 9-3 8z" class="s6"/><path d="M0 0v20h20" class="s1"/></g><g id="0mv-2"><path d="M9 0h11v20H3z" class="s7"/><path d="M3 20 9 0h11M0 20h20" class="s1"/></g><g id="1mv-2"><path d="M2.875 0H20v20H9z" class="s7"/><path d="m3 0 6 20h11M0 0h20" class="s1"/></g><g id="xmv-2"><path d="M9 0h11v20H9L6 10z" class="s7"/><path d="M0 20h3L9 0h11" class="s1"/><path d="M0 0h3l6 20h11" class="s1"/><path d="m0 5 3.5-3.5M0 10l4.5-4.5M0 15l6-6M0 20l4-4" class="s2"/></g><g id="dmv-2"><path d="M9 0h11v20H3z" class="s7"/><path d="M3 20 9 0h11M0 20h20" class="s1"/></g><g id="umv-2"><path d="M3 0h17v20H9z" class="s7"/><path d="m3 0 6 20h11M0 0h20" class="s1"/></g><g id="zmv-2"><path d="M9 0h11v20H9L6 10z" class="s7"/><path d="m6 10 3 10h11M0 10h6L9 0h11" class="s1"/></g><g id="vvv-2"><path d="M20 20H0V0h20" class="s7"/><path d="M0 20h20M0 0h20" class="s1"/></g><g id="vm0-2"><path d="M0 20V0h3l6 20" class="s7"/><path d="M0 0h3l6 20M0 20h20" class="s1"/></g><g id="vm1-2"><path d="M0 0v20h3L9 0" class="s7"/><path d="M0 0h20M0 20h3L9 0" class="s1"/></g><g id="vmx-2"><path d="M0 0v20h3l3-10L3 0" class="s7"/><path d="M0 0h3l6 20h11" class="s1"/><path d="M0 20h3L9 0h11" class="s1"/><path d="m20 15-5 5M20 10 10 20M20 5 8 17M20 0 7 13M15 0 7 8M10 0 9 1" class="s2"/></g><g id="vmd-2"><path d="M0 0v20h20C10 20 7 10 3 0" class="s7"/><path d="M0 0h3c4 10 7 20 17 20M0 20h20" class="s1"/></g><g id="vmu-2"><path d="M0 0v20h3C7 10 10 0 20 0" class="s7"/><path d="M0 20h3C7 10 10 0 20 0M0 0h20" class="s1"/></g><g id="vmz-2"><path d="M0 0h3c7 10 12 10 17 10-5 0-10 0-17 10H0" class="s7"/><path d="M0 0h3c7 10 12 10 17 10M0 20h3c7-10 12-10 17-10" class="s1"/></g><g id="0mv-3"><path d="M9 0h11v20H3z" class="s8"/><path d="M3 20 9 0h11M0 20h20" class="s1"/></g><g id="1mv-3"><path d="M2.875 0H20v20H9z" class="s8"/><path d="m3 0 6 20h11M0 0h20" class="s1"/></g><g id="xmv-3"><path d="M9 0h11v20H9L6 10z" class="s8"/><path d="M0 20h3L9 0h11" class="s1"/><path d="M0 0h3l6 20h11" class="s1"/><path d="m0 5 3.5-3.5M0 10l4.5-4.5M0 15l6-6M0 20l4-4" class="s2"/></g><g id="dmv-3"><path d="M9 0h11v20H3z" class="s8"/><path d="M3 20 9 0h11M0 20h20" class="s1"/></g><g id="umv-3"><path d="M3 0h17v20H9z" class="s8"/><path d="m3 0 6 20h11M0 0h20" class="s1"/></g><g id="zmv-3"><path d="M9 0h11v20H9L6 10z" class="s8"/><path d="m6 10 3 10h11M0 10h6L9 0h11" class="s1"/></g><g id="vvv-3"><path d="M20 20H0V0h20" class="s8"/><path d="M0 20h20M0 0h20" class="s1"/></g><g id="vm0-3"><path d="M0 20V0h3l6 20" class="s8"/><path d="M0 0h3l6 20M0 20h20" class="s1"/></g><g id="vm1-3"><path d="M0 0v20h3L9 0" class="s8"/><path d="M0 0h20M0 20h3L9 0" class="s1"/></g><g id="vmx-3"><path d="M0 0v20h3l3-10L3 0" class="s8"/><path d="M0 0h3l6 20h11" class="s1"/><path d="M0 20h3L9 0h11" class="s1"/><path d="m20 15-5 5M20 10 10 20M20 5 8 17M20 0 7 13M15 0 7 8M10 0 9 1" class="s2"/></g><g id="vmd-3"><path d="M0 0v20h20C10 20 7 10 3 0" class="s8"/><path d="M0 0h3c4 10 7 20 17 20M0 20h20" class="s1"/></g><g id="vmu-3"><path d="M0 0v20h3C7 10 10 0 20 0" class="s8"/><path d="M0 20h3C7 10 10 0 20 0M0 0h20" class="s1"/></g><g id="vmz-3"><path d="M0 0h3c7 10 12 10 17 10-5 0-10 0-17 10H0" class="s8"/><path d="M0 0h3c7 10 12 10 17 10M0 20h3c7-10 12-10 17-10" class="s1"/></g><g id="0mv-4"><path d="M9 0h11v20H3z" class="s9"/><path d="M3 20 9 0h11M0 20h20" class="s1"/></g><g id="1mv-4"><path d="M2.875 0H20v20H9z" class="s9"/><path d="m3 0 6 20h11M0 0h20" class="s1"/></g><g id="xmv-4"><path d="M9 0h11v20H9L6 10z" class="s9"/><path d="M0 20h3L9 0h11" class="s1"/><path d="M0 0h3l6 20h11" class="s1"/><path d="m0 5 3.5-3.5M0 10l4.5-4.5M0 15l6-6M0 20l4-4" class="s2"/></g><g id="dmv-4"><path d="M9 0h11v20H3z" class="s9"/><path d="M3 20 9 0h11M0 20h20" class="s1"/></g><g id="umv-4"><path d="M3 0h17v20H9z" class="s9"/><path d="m3 0 6 20h11M0 0h20" class="s1"/></g><g id="zmv-4"><path d="M9 0h11v20H9L6 10z" class="s9"/><path d="m6 10 3 10h11M0 10h6L9 0h11" class="s1"/></g><g id="vvv-4"><path d="M20 20H0V0h20" class="s9"/><path d="M0 20h20M0 0h20" class="s1"/></g><g id="vm0-4"><path d="M0 20V0h3l6 20" class="s9"/><path d="M0 0h3l6 20M0 20h20" class="s1"/></g><g id="vm1-4"><path d="M0 0v20h3L9 0" class="s9"/><path d="M0 0h20M0 20h3L9 0" class="s1"/></g><g id="vmx-4"><path d="M0 0v20h3l3-10L3 0" class="s9"/><path d="M0 0h3l6 20h11" class="s1"/><path d="M0 20h3L9 0h11" class="s1"/><path d="m20 15-5 5M20 10 10 20M20 5 8 17M20 0 7 13M15 0 7 8M10 0 9 1" class="s2"/></g><g id="vmd-4"><path d="M0 0v20h20C10 20 7 10 3 0" class="s9"/><path d="M0 0h3c4 10 7 20 17 20M0 20h20" class="s1"/></g><g id="vmu-4"><path d="M0 0v20h3C7 10 10 0 20 0" class="s9"/><path d="M0 20h3C7 10 10 0 20 0M0 0h20" class="s1"/></g><g id="vmz-4"><path d="M0 0h3c7 10 12 10 17 10-5 0-10 0-17 10H0" class="s9"/><path d="M0 0h3c7 10 12 10 17 10M0 20h3c7-10 12-10 17-10" class="s1"/></g><g id="0mv-5"><path d="M9 0h11v20H3z" class="s10"/><path d="M3 20 9 0h11M0 20h20" class="s1"/></g><g id="1mv-5"><path d="M2.875 0H20v20H9z" class="s10"/><path d="m3 0 6 20h11M0 0h20" class="s1"/></g><g id="xmv-5"><path d="M9 0h11v20H9L6 10z" class="s10"/><path d="M0 20h3L9 0h11" class="s1"/><path d="M0 0h3l6 20h11" class="s1"/><path d="m0 5 3.5-3.5M0 10l4.5-4.5M0 15l6-6M0 20l4-4" class="s2"/></g><g id="dmv-5"><path d="M9 0h11v20H3z" class="s10"/><path d="M3 20 9 0h11M0 20h20" class="s1"/></g><g id="umv-5"><path d="M3 0h17v20H9z" class="s10"/><path d="m3 0 6 20h11M0 0h20" class="s1"/></g><g id="zmv-5"><path d="M9 0h11v20H9L6 10z" class="s10"/><path d="m6 10 3 10h11M0 10h6L9 0h11" class="s1"/></g><g id="vvv-5"><path d="M20 20H0V0h20" class="s10"/><path d="M0 20h20M0 0h20" class="s1"/></g><g id="vm0-5"><path d="M0 20V0h3l6 20" class="s10"/><path d="M0 0h3l6 20M0 20h20" class="s1"/></g><g id="vm1-5"><path d="M0 0v20h3L9 0" class="s10"/><path d="M0 0h20M0 20h3L9 0" class="s1"/></g><g id="vmx-5"><path d="M0 0v20h3l3-10L3 0" class="s10"/><path d="M0 0h3l6 20h11" class="s1"/><path d="M0 20h3L9 0h11" class="s1"/><path d="m20 15-5 5M20 10 10 20M20 5 8 17M20 0 7 13M15 0 7 8M10 0 9 1" class="s2"/></g><g id="vmd-5"><path d="M0 0v20h20C10 20 7 10 3 0" class="s10"/><path d="M0 0h3c4 10 7 20 17 20M0 20h20" class="s1"/></g><g id="vmu-5"><path d="M0 0v20h3C7 10 10 0 20 0" class="s10"/><path d="M0 20h3C7 10 10 0 20 0M0 0h20" class="s1"/></g><g id="vmz-5"><path d="M0 0h3c7 10 12 10 17 10-5 0-10 0-17 10H0" class="s10"/><path d="M0 0h3c7 10 12 10 17 10M0 20h3c7-10 12-10 17-10" class="s1"/></g><g id="0mv-6"><path d="M9 0h11v20H3z" class="s11"/><path d="M3 20 9 0h11M0 20h20" class="s1"/></g><g id="1mv-6"><path d="M2.875 0H20v20H9z" class="s11"/><path d="m3 0 6 20h11M0 0h20" class="s1"/></g><g id="xmv-6"><path d="M9 0h11v20H9L6 10z" class="s11"/><path d="M0 20h3L9 0h11" class="s1"/><path d="M0 0h3l6 20h11" class="s1"/><path d="m0 5 3.5-3.5M0 10l4.5-4.5M0 15l6-6M0 20l4-4" class="s2"/></g><g id="dmv-6"><path d="M9 0h11v20H3z" class="s11"/><path d="M3 20 9 0h11M0 20h20" class="s1"/></g><g id="umv-6"><path d="M3 0h17v20H9z" class="s11"/><path d="m3 0 6 20h11M0 0h20" class="s1"/></g><g id="zmv-6"><path d="M9 0h11v20H9L6 10z" class="s11"/><path d="m6 10 3 10h11M0 10h6L9 0h11" class="s1"/></g><g id="vvv-6"><path d="M20 20H0V0h20" class="s11"/><path d="M0 20h20M0 0h20" class="s1"/></g><g id="vm0-6"><path d="M0 20V0h3l6 20" class="s11"/><path d="M0 0h3l6 20M0 20h20" class="s1"/></g><g id="vm1-6"><path d="M0 0v20h3L9 0" class="s11"/><path d="M0 0h20M0 20h3L9 0" class="s1"/></g><g id="vmx-6"><path d="M0 0v20h3l3-10L3 0" class="s11"/><path d="M0 0h3l6 20h11" class="s1"/><path d="M0 20h3L9 0h11" class="s1"/><path d="m20 15-5 5M20 10 10 20M20 5 8 17M20 0 7 13M15 0 7 8M10 0 9 1" class="s2"/></g><g id="vmd-6"><path d="M0 0v20h20C10 20 7 10 3 0" class="s11"/><path d="M0 0h3c4 10 7 20 17 20M0 20h20" class="s1"/></g><g id="vmu-6"><path d="M0 0v20h3C7 10 10 0 20 0" class="s11"/><path d="M0 20h3C7 10 10 0 20 0M0 0h20" class="s1"/></g><g id="vmz-6"><path d="M0 0h3c7 10 12 10 17 10-5 0-10 0-17 10H0" class="s11"/><path d="M0 0h3c7 10 12 10 17 10M0 20h3c7-10 12-10 17-10" class="s1"/></g><g id="0mv-7"><path d="M9 0h11v20H3z" class="s12"/><path d="M3 20 9 0h11M0 20h20" class="s1"/></g><g id="1mv-7"><path d="M2.875 0H20v20H9z" class="s12"/><path d="m3 0 6 20h11M0 0h20" class="s1"/></g><g id="xmv-7"><path d="M9 0h11v20H9L6 10z" class="s12"/><path d="M0 20h3L9 0h11" class="s1"/><path d="M0 0h3l6 20h11" class="s1"/><path d="m0 5 3.5-3.5M0 10l4.5-4.5M0 15l6-6M0 20l4-4" class="s2"/></g><g id="dmv-7"><path d="M9 0h11v20H3z" class="s12"/><path d="M3 20 9 0h11M0 20h20" class="s1"/></g><g id="umv-7"><path d="M3 0h17v20H9z" class="s12"/><path d="m3 0 6 20h11M0 0h20" class="s1"/></g><g id="zmv-7"><path d="M9 0h11v20H9L6 10z" class="s12"/><path d="m6 10 3 10h11M0 10h6L9 0h11" class="s1"/></g><g id="vvv-7"><path d="M20 20H0V0h20" class="s12"/><path d="M0 20h20M0 0h20" class="s1"/></g><g id="vm0-7"><path d="M0 20V0h3l6 20" class="s12"/><path d="M0 0h3l6 20M0 20h20" class="s1"/></g><g id="vm1-7"><path d="M0 0v20h3L9 0" class="s12"/><path d="M0 0h20M0 20h3L9 0" class="s1"/></g><g id="vmx-7"><path d="M0 0v20h3l3-10L3 0" class="s12"/><path d="M0 0h3l6 20h11" class="s1"/><path d="M0 20h3L9 0h11" class="s1"/><path d="m20 15-5 5M20 10 10 20M20 5 8 17M20 0 7 13M15 0 7 8M10 0 9 1" class="s2"/></g><g id="vmd-7"><path d="M0 0v20h20C10 20 7 10 3 0" class="s12"/><path d="M0 0h3c4 10 7 20 17 20M0 20h20" class="s1"/></g><g id="vmu-7"><path d="M0 0v20h3C7 10 10 0 20 0" class="s12"/><path d="M0 20h3C7 10 10 0 20 0M0 0h20" class="s1"/></g><g id="vmz-7"><path d="M0 0h3c7 10 12 10 17 10-5 0-10 0-17 10H0" class="s12"/><path d="M0 0h3c7 10 12 10 17 10M0 20h3c7-10 12-10 17-10" class="s1"/></g><g id="0mv-8"><path d="M9 0h11v20H3z" class="s13"/><path d="M3 20 9 0h11M0 20h20" class="s1"/></g><g id="1mv-8"><path d="M2.875 0H20v20H9z" class="s13"/><path d="m3 0 6 20h11M0 0h20" class="s1"/></g><g id="xmv-8"><path d="M9 0h11v20H9L6 10z" class="s13"/><path d="M0 20h3L9 0h11" class="s1"/><path d="M0 0h3l6 20h11" class="s1"/><path d="m0 5 3.5-3.5M0 10l4.5-4.5M0 15l6-6M0 20l4-4" class="s2"/></g><g id="dmv-8"><path d="M9 0h11v20H3z" class="s13"/><path d="M3 20 9 0h11M0 20h20" class="s1"/></g><g id="umv-8"><path d="M3 0h17v20H9z" class="s13"/><path d="m3 0 6 20h11M0 0h20" class="s1"/></g><g id="zmv-8"><path d="M9 0h11v20H9L6 10z" class="s13"/><path d="m6 10 3 10h11M0 10h6L9 0h11" class="s1"/></g><g id="vvv-8"><path d="M20 20H0V0h20" class="s13"/><path d="M0 20h20M0 0h20" class="s1"/></g><g id="vm0-8"><path d="M0 20V0h3l6 20" class="s13"/><path d="M0 0h3l6 20M0 20h20" class="s1"/></g><g id="vm1-8"><path d="M0 0v20h3L9 0" class="s13"/><path d="M0 0h20M0 20h3L9 0" class="s1"/></g><g id="vmx-8"><path d="M0 0v20h3l3-10L3 0" class="s13"/><path d="M0 0h3l6 20h11" class="s1"/><path d="M0 20h3L9 0h11" class="s1"/><path d="m20 15-5 5M20 10 10 20M20 5 8 17M20 0 7 13M15 0 7 8M10 0 9 1" class="s2"/></g><g id="vmd-8"><path d="M0 0v20h20C10 20 7 10 3 0" class="s13"/><path d="M0 0h3c4 10 7 20 17 20M0 20h20" class="s1"/></g><g id="vmu-8"><path d="M0 0v20h3C7 10 10 0 20 0" class="s13"/><path d="M0 20h3C7 10 10 0 20 0M0 0h20" class="s1"/></g><g id="vmz-8"><path d="M0 0h3c7 10 12 10 17 10-5 0-10 0-17 10H0" class="s13"/><path d="M0 0h3c7 10 12 10 17 10M0 20h3c7-10 12-10 17-10" class="s1"/></g><g id="0mv-9"><path d="M9 0h11v20H3z" class="s14"/><path d="M3 20 9 0h11M0 20h20" class="s1"/></g><g id="1mv-9"><path d="M2.875 0H20v20H9z" class="s14"/><path d="m3 0 6 20h11M0 0h20" class="s1"/></g><g id="xmv-9"><path d="M9 0h11v20H9L6 10z" class="s14"/><path d="M0 20h3L9 0h11" class="s1"/><path d="M0 0h3l6 20h11" class="s1"/><path d="m0 5 3.5-3.5M0 10l4.5-4.5M0 15l6-6M0 20l4-4" class="s2"/></g><g id="dmv-9"><path d="M9 0h11v20H3z" class="s14"/><path d="M3 20 9 0h11M0 20h20" class="s1"/></g><g id="umv-9"><path d="M3 0h17v20H9z" class="s14"/><path d="m3 0 6 20h11M0 0h20" class="s1"/></g><g id="zmv-9"><path d="M9 0h11v20H9L6 10z" class="s14"/><path d="m6 10 3 10h11M0 10h6L9 0h11" class="s1"/></g><g id="vvv-9"><path d="M20 20H0V0h20" class="s14"/><path d="M0 20h20M0 0h20" class="s1"/></g><g id="vm0-9"><path d="M0 20V0h3l6 20" class="s14"/><path d="M0 0h3l6 20M0 20h20" class="s1"/></g><g id="vm1-9"><path d="M0 0v20h3L9 0" class="s14"/><path d="M0 0h20M0 20h3L9 0" class="s1"/></g><g id="vmx-9"><path d="M0 0v20h3l3-10L3 0" class="s14"/><path d="M0 0h3l6 20h11" class="s1"/><path d="M0 20h3L9 0h11" class="s1"/><path d="m20 15-5 5M20 10 10 20M20 5 8 17M20 0 7 13M15 0 7 8M10 0 9 1" class="s2"/></g><g id="vmd-9"><path d="M0 0v20h20C10 20 7 10 3 0" class="s14"/><path d="M0 0h3c4 10 7 20 17 20M0 20h20" class="s1"/></g><g id="vmu-9"><path d="M0 0v20h3C7 10 10 0 20 0" class="s14"/><path d="M0 20h3C7 10 10 0 20 0M0 0h20" class="s1"/></g><g id="vmz-9"><path d="M0 0h3c7 10 12 10 17 10-5 0-10 0-17 10H0" class="s14"/><path d="M0 0h3c7 10 12 10 17 10M0 20h3c7-10 12-10 17-10" class="s1"/></g><g id="vmv-2-2"><path d="M9 0h11v20H9L6 10zM3 0H0v20h3l3-10z" class="s7"/><path d="M0 0h3l6 20h11" class="s1"/><path d="M0 20h3L9 0h11" class="s1"/></g><g id="vmv-3-2"><path d="M9 0h11v20H9L6 10z" class="s7"/><path d="M3 0H0v20h3l3-10z" class="s8"/><path d="M0 0h3l6 20h11" class="s1"/><path d="M0 20h3L9 0h11" class="s1"/></g><g id="vmv-4-2"><path d="M9 0h11v20H9L6 10z" class="s7"/><path d="M3 0H0v20h3l3-10z" class="s9"/><path d="M0 0h3l6 20h11" class="s1"/><path d="M0 20h3L9 0h11" class="s1"/></g><g id="vmv-5-2"><path d="M9 0h11v20H9L6 10z" class="s7"/><path d="M3 0H0v20h3l3-10z" class="s10"/><path d="M0 0h3l6 20h11" class="s1"/><path d="M0 20h3L9 0h11" class="s1"/></g><g id="vmv-6-2"><path d="M9 0h11v20H9L6 10z" class="s7"/><path d="M3 0H0v20h3l3-10z" class="s11"/><path d="M0 0h3l6 20h11" class="s1"/><path d="M0 20h3L9 0h11" class="s1"/></g><g id="vmv-7-2"><path d="M9 0h11v20H9L6 10z" class="s7"/><path d="M3 0H0v20h3l3-10z" class="s12"/><path d="M0 0h3l6 20h11" class="s1"/><path d="M0 20h3L9 0h11" class="s1"/></g><g id="vmv-8-2"><path d="M9 0h11v20H9L6 10z" class="s7"/><path d="M3 0H0v20h3l3-10z" class="s13"/><path d="M0 0h3l6 20h11" class="s1"/><path d="M0 20h3L9 0h11" class="s1"/></g><g id="vmv-9-2"><path d="M9 0h11v20H9L6 10z" class="s7"/><path d="M3 0H0v20h3l3-10z" class="s14"/><path d="M0 0h3l6 20h11" class="s1"/><path d="M0 20h3L9 0h11" class="s1"/></g><g id="vmv-2-3"><path d="M9 0h11v20H9L6 10z" class="s8"/><path d="M3 0H0v20h3l3-10z" class="s7"/><path d="M0 0h3l6 20h11" class="s1"/><path d="M0 20h3L9 0h11" class="s1"/></g><g id="vmv-3-3"><path d="M9 0h11v20H9L6 10zM3 0H0v20h3l3-10z" class="s8"/><path d="M0 0h3l6 20h11" class="s1"/><path d="M0 20h3L9 0h11" class="s1"/></g><g id="vmv-4-3"><path d="M9 0h11v20H9L6 10z" class="s8"/><path d="M3 0H0v20h3l3-10z" class="s9"/><path d="M0 0h3l6 20h11" class="s1"/><path d="M0 20h3L9 0h11" class="s1"/></g><g id="vmv-5-3"><path d="M9 0h11v20H9L6 10z" class="s8"/><path d="M3 0H0v20h3l3-10z" class="s10"/><path d="M0 0h3l6 20h11" class="s1"/><path d="M0 20h3L9 0h11" class="s1"/></g><g id="vmv-6-3"><path d="M9 0h11v20H9L6 10z" class="s8"/><path d="M3 0H0v20h3l3-10z" class="s11"/><path d="M0 0h3l6 20h11" class="s1"/><path d="M0 20h3L9 0h11" class="s1"/></g><g id="vmv-7-3"><path d="M9 0h11v20H9L6 10z" class="s8"/><path d="M3 0H0v20h3l3-10z" class="s12"/><path d="M0 0h3l6 20h11" class="s1"/><path d="M0 20h3L9 0h11" class="s1"/></g><g id="vmv-8-3"><path d="M9 0h11v20H9L6 10z" class="s8"/><path d="M3 0H0v20h3l3-10z" class="s13"/><path d="M0 0h3l6 20h11" class="s1"/><path d="M0 20h3L9 0h11" class="s1"/></g><g id="vmv-9-3"><path d="M9 0h11v20H9L6 10z" class="s8"/><path d="M3 0H0v20h3l3-10z" class="s14"/><path d="M0 0h3l6 20h11" class="s1"/><path d="M0 20h3L9 0h11" class="s1"/></g><g id="vmv-2-4"><path d="M9 0h11v20H9L6 10z" class="s9"/><path d="M3 0H0v20h3l3-10z" class="s7"/><path d="M0 0h3l6 20h11" class="s1"/><path d="M0 20h3L9 0h11" class="s1"/></g><g id="vmv-3-4"><path d="M9 0h11v20H9L6 10z" class="s9"/><path d="M3 0H0v20h3l3-10z" class="s8"/><path d="M0 0h3l6 20h11" class="s1"/><path d="M0 20h3L9 0h11" class="s1"/></g><g id="vmv-4-4"><path d="M9 0h11v20H9L6 10zM3 0H0v20h3l3-10z" class="s9"/><path d="M0 0h3l6 20h11" class="s1"/><path d="M0 20h3L9 0h11" class="s1"/></g><g id="vmv-5-4"><path d="M9 0h11v20H9L6 10z" class="s9"/><path d="M3 0H0v20h3l3-10z" class="s10"/><path d="M0 0h3l6 20h11" class="s1"/><path d="M0 20h3L9 0h11" class="s1"/></g><g id="vmv-6-4"><path d="M9 0h11v20H9L6 10z" class="s9"/><path d="M3 0H0v20h3l3-10z" class="s11"/><path d="M0 0h3l6 20h11" class="s1"/><path d="M0 20h3L9 0h11" class="s1"/></g><g id="vmv-7-4"><path d="M9 0h11v20H9L6 10z" class="s9"/><path d="M3 0H0v20h3l3-10z" class="s12"/><path d="M0 0h3l6 20h11" class="s1"/><path d="M0 20h3L9 0h11" class="s1"/></g><g id="vmv-8-4"><path d="M9 0h11v20H9L6 10z" class="s9"/><path d="M3 0H0v20h3l3-10z" class="s13"/><path d="M0 0h3l6 20h11" class="s1"/><path d="M0 20h3L9 0h11" class="s1"/></g><g id="vmv-9-4"><path d="M9 0h11v20H9L6 10z" class="s9"/><path d="M3 0H0v20h3l3-10z" class="s14"/><path d="M0 0h3l6 20h11" class="s1"/><path d="M0 20h3L9 0h11" class="s1"/></g><g id="vmv-2-5"><path d="M9 0h11v20H9L6 10z" class="s10"/><path d="M3 0H0v20h3l3-10z" class="s7"/><path d="M0 0h3l6 20h11" class="s1"/><path d="M0 20h3L9 0h11" class="s1"/></g><g id="vmv-3-5"><path d="M9 0h11v20H9L6 10z" class="s10"/><path d="M3 0H0v20h3l3-10z" class="s8"/><path d="M0 0h3l6 20h11" class="s1"/><path d="M0 20h3L9 0h11" class="s1"/></g><g id="vmv-4-5"><path d="M9 0h11v20H9L6 10z" class="s10"/><path d="M3 0H0v20h3l3-10z" class="s9"/><path d="M0 0h3l6 20h11" class="s1"/><path d="M0 20h3L9 0h11" class="s1"/></g><g id="vmv-5-5"><path d="M9 0h11v20H9L6 10zM3 0H0v20h3l3-10z" class="s10"/><path d="M0 0h3l6 20h11" class="s1"/><path d="M0 20h3L9 0h11" class="s1"/></g><g id="vmv-6-5"><path d="M9 0h11v20H9L6 10z" class="s10"/><path d="M3 0H0v20h3l3-10z" class="s11"/><path d="M0 0h3l6 20h11" class="s1"/><path d="M0 20h3L9 0h11" class="s1"/></g><g id="vmv-7-5"><path d="M9 0h11v20H9L6 10z" class="s10"/><path d="M3 0H0v20h3l3-10z" class="s12"/><path d="M0 0h3l6 20h11" class="s1"/><path d="M0 20h3L9 0h11" class="s1"/></g><g id="vmv-8-5"><path d="M9 0h11v20H9L6 10z" class="s10"/><path d="M3 0H0v20h3l3-10z" class="s13"/><path d="M0 0h3l6 20h11" class="s1"/><path d="M0 20h3L9 0h11" class="s1"/></g><g id="vmv-9-5"><path d="M9 0h11v20H9L6 10z" class="s10"/><path d="M3 0H0v20h3l3-10z" class="s14"/><path d="M0 0h3l6 20h11" class="s1"/><path d="M0 20h3L9 0h11" class="s1"/></g><g id="vmv-2-6"><path d="M9 0h11v20H9L6 10z" class="s11"/><path d="M3 0H0v20h3l3-10z" class="s7"/><path d="M0 0h3l6 20h11" class="s1"/><path d="M0 20h3L9 0h11" class="s1"/></g><g id="vmv-3-6"><path d="M9 0h11v20H9L6 10z" class="s11"/><path d="M3 0H0v20h3l3-10z" class="s8"/><path d="M0 0h3l6 20h11" class="s1"/><path d="M0 20h3L9 0h11" class="s1"/></g><g id="vmv-4-6"><path d="M9 0h11v20H9L6 10z" class="s11"/><path d="M3 0H0v20h3l3-10z" class="s9"/><path d="M0 0h3l6 20h11" class="s1"/><path d="M0 20h3L9 0h11" class="s1"/></g><g id="vmv-5-6"><path d="M9 0h11v20H9L6 10z" class="s11"/><path d="M3 0H0v20h3l3-10z" class="s10"/><path d="M0 0h3l6 20h11" class="s1"/><path d="M0 20h3L9 0h11" class="s1"/></g><g id="vmv-6-6"><path d="M9 0h11v20H9L6 10zM3 0H0v20h3l3-10z" class="s11"/><path d="M0 0h3l6 20h11" class="s1"/><path d="M0 20h3L9 0h11" class="s1"/></g><g id="vmv-7-6"><path d="M9 0h11v20H9L6 10z" class="s11"/><path d="M3 0H0v20h3l3-10z" class="s12"/><path d="M0 0h3l6 20h11" class="s1"/><path d="M0 20h3L9 0h11" class="s1"/></g><g id="vmv-8-6"><path d="M9 0h11v20H9L6 10z" class="s11"/><path d="M3 0H0v20h3l3-10z" class="s13"/><path d="M0 0h3l6 20h11" class="s1"/><path d="M0 20h3L9 0h11" class="s1"/></g><g id="vmv-9-6"><path d="M9 0h11v20H9L6 10z" class="s11"/><path d="M3 0H0v20h3l3-10z" class="s14"/><path d="M0 0h3l6 20h11" class="s1"/><path d="M0 20h3L9 0h11" class="s1"/></g><g id="vmv-2-7"><path d="M9 0h11v20H9L6 10z" class="s12"/><path d="M3 0H0v20h3l3-10z" class="s7"/><path d="M0 0h3l6 20h11" class="s1"/><path d="M0 20h3L9 0h11" class="s1"/></g><g id="vmv-3-7"><path d="M9 0h11v20H9L6 10z" class="s12"/><path d="M3 0H0v20h3l3-10z" class="s8"/><path d="M0 0h3l6 20h11" class="s1"/><path d="M0 20h3L9 0h11" class="s1"/></g><g id="vmv-4-7"><path d="M9 0h11v20H9L6 10z" class="s12"/><path d="M3 0H0v20h3l3-10z" class="s9"/><path d="M0 0h3l6 20h11" class="s1"/><path d="M0 20h3L9 0h11" class="s1"/></g><g id="vmv-5-7"><path d="M9 0h11v20H9L6 10z" class="s12"/><path d="M3 0H0v20h3l3-10z" class="s10"/><path d="M0 0h3l6 20h11" class="s1"/><path d="M0 20h3L9 0h11" class="s1"/></g><g id="vmv-6-7"><path d="M9 0h11v20H9L6 10z" class="s12"/><path d="M3 0H0v20h3l3-10z" class="s11"/><path d="M0 0h3l6 20h11" class="s1"/><path d="M0 20h3L9 0h11" class="s1"/></g><g id="vmv-7-7"><path d="M9 0h11v20H9L6 10zM3 0H0v20h3l3-10z" class="s12"/><path d="M0 0h3l6 20h11" class="s1"/><path d="M0 20h3L9 0h11" class="s1"/></g><g id="vmv-8-7"><path d="M9 0h11v20H9L6 10z" class="s12"/><path d="M3 0H0v20h3l3-10z" class="s13"/><path d="M0 0h3l6 20h11" class="s1"/><path d="M0 20h3L9 0h11" class="s1"/></g><g id="vmv-9-7"><path d="M9 0h11v20H9L6 10z" class="s12"/><path d="M3 0H0v20h3l3-10z" class="s14"/><path d="M0 0h3l6 20h11" class="s1"/><path d="M0 20h3L9 0h11" class="s1"/></g><g id="vmv-2-8"><path d="M9 0h11v20H9L6 10z" class="s13"/><path d="M3 0H0v20h3l3-10z" class="s7"/><path d="M0 0h3l6 20h11" class="s1"/><path d="M0 20h3L9 0h11" class="s1"/></g><g id="vmv-3-8"><path d="M9 0h11v20H9L6 10z" class="s13"/><path d="M3 0H0v20h3l3-10z" class="s8"/><path d="M0 0h3l6 20h11" class="s1"/><path d="M0 20h3L9 0h11" class="s1"/></g><g id="vmv-4-8"><path d="M9 0h11v20H9L6 10z" class="s13"/><path d="M3 0H0v20h3l3-10z" class="s9"/><path d="M0 0h3l6 20h11" class="s1"/><path d="M0 20h3L9 0h11" class="s1"/></g><g id="vmv-5-8"><path d="M9 0h11v20H9L6 10z" class="s13"/><path d="M3 0H0v20h3l3-10z" class="s10"/><path d="M0 0h3l6 20h11" class="s1"/><path d="M0 20h3L9 0h11" class="s1"/></g><g id="vmv-6-8"><path d="M9 0h11v20H9L6 10z" class="s13"/><path d="M3 0H0v20h3l3-10z" class="s11"/><path d="M0 0h3l6 20h11" class="s1"/><path d="M0 20h3L9 0h11" class="s1"/></g><g id="vmv-7-8"><path d="M9 0h11v20H9L6 10z" class="s13"/><path d="M3 0H0v20h3l3-10z" class="s12"/><path d="M0 0h3l6 20h11" class="s1"/><path d="M0 20h3L9 0h11" class="s1"/></g><g id="vmv-8-8"><path d="M9 0h11v20H9L6 10zM3 0H0v20h3l3-10z" class="s13"/><path d="M0 0h3l6 20h11" class="s1"/><path d="M0 20h3L9 0h11" class="s1"/></g><g id="vmv-9-8"><path d="M9 0h11v20H9L6 10z" class="s13"/><path d="M3 0H0v20h3l3-10z" class="s14"/><path d="M0 0h3l6 20h11" class="s1"/><path d="M0 20h3L9 0h11" class="s1"/></g><g id="vmv-2-9"><path d="M9 0h11v20H9L6 10z" class="s14"/><path d="M3 0H0v20h3l3-10z" class="s7"/><path d="M0 0h3l6 20h11" class="s1"/><path d="M0 20h3L9 0h11" class="s1"/></g><g id="vmv-3-9"><path d="M9 0h11v20H9L6 10z" class="s14"/><path d="M3 0H0v20h3l3-10z" class="s8"/><path d="M0 0h3l6 20h11" class="s1"/><path d="M0 20h3L9 0h11" class="s1"/></g><g id="vmv-4-9"><path d="M9 0h11v20H9L6 10z" class="s14"/><path d="M3 0H0v20h3l3-10z" class="s9"/><path d="M0 0h3l6 20h11" class="s1"/><path d="M0 20h3L9 0h11" class="s1"/></g><g id="vmv-5-9"><path d="M9 0h11v20H9L6 10z" class="s14"/><path d="M3 0H0v20h3l3-10z" class="s10"/><path d="M0 0h3l6 20h11" class="s1"/><path d="M0 20h3L9 0h11" class="s1"/></g><g id="vmv-6-9"><path d="M9 0h11v20H9L6 10z" class="s14"/><path d="M3 0H0v20h3l3-10z" class="s11"/><path d="M0 0h3l6 20h11" class="s1"/><path d="M0 20h3L9 0h11" class="s1"/></g><g id="vmv-7-9"><path d="M9 0h11v20H9L6 10z" class="s14"/><path d="M3 0H0v20h3l3-10z" class="s12"/><path d="M0 0h3l6 20h11" class="s1"/><path d="M0 20h3L9 0h11" class="s1"/></g><g id="vmv-8-9"><path d="M9 0h11v20H9L6 10z" class="s14"/><path d="M3 0H0v20h3l3-10z" class="s13"/><path d="M0 0h3l6 20h11" class="s1"/><path d="M0 20h3L9 0h11" class="s1"/></g><g id="vmv-9-9"><path d="M9 0h11v20H9L6 10zM3 0H0v20h3l3-10z" class="s14"/><path d="M0 0h3l6 20h11" class="s1"/><path d="M0 20h3L9 0h11" class="s1"/></g><g id="arrow0"><path d="m-12-3 9 3-9 3c1-2 1-4 0-6z" style="fill:#0041c4;fill-opacity:1;stroke:none"/><path d="M0 0h-15" style="fill:none;stroke:#0041c4;stroke-width:1;stroke-linecap:round;stroke-linejoin:miter;stroke-miterlimit:4;stroke-opacity:1;stroke-dasharray:none"/></g><path d="M6 15h20v20H6z" id="socket"/><path d="M0 20V0h20" class="s1" id="pclk"/><path d="M0 0v20h20" class="s1" id="nclk"/><path d="M0 20h20" class="s1" id="0"/><path d="M0 20h3l3-10 3 10h11" class="s1" id="0m0"/><path d="M0 20h3L9 0h11" class="s1" id="0m1"/><path d="M0 20h3C7 10 10.108 0 20 0" class="s1" id="0mu"/><path d="M0 20h3c7-10 12-10 17-10" class="s1" id="0mz"/><path d="M0 0h20" class="s1" id="111"/><path d="M0 0h3l6 20h11" class="s1" id="1m0"/><path d="M0 0h3l3 10L9 0h11" class="s1" id="1m1"/><path d="M0 0h3c4 10 7 20 17 20" class="s1" id="1md"/><path d="M0 0h3c7 10 12 10 17 10" class="s1" id="1mz"/><path d="M0 20h20" class="s3" id="ddd"/><path d="M0 20h3L9 0h11" class="s1" id="dm1"/><path d="M0 20h20" class="s3" id="dmd"/><path d="M0 20h3C7 10 10.108 0 20 0" class="s1" id="dmu"/><path d="M0 20h3c7-10 12-10 17-10" class="s1" id="dmz"/><path d="M0 0h20" class="s3" id="uuu"/><path d="M0 0h3l6 20h11" class="s1" id="um0"/><path d="M0 0h3c4 10 7 20 17 20" class="s1" id="umd"/><path d="M0 0h20" class="s3" id="umu"/><path d="M0 0h3c7 10 12 10 17 10" style="color:#000;fill:none;stroke:#000;stroke-width:1;stroke-linecap:round;stroke-linejoin:miter;stroke-miterlimit:4;stroke-opacity:1;stroke-dasharray:none;stroke-dashoffset:0;marker:none;visibility:visible;display:inline;overflow:visible" id="umz"/><path d="M0 10h20" class="s1" id="zzz"/><path d="M0 10h6l3 10h11" class="s1" id="zm0"/><path d="M0 10h6L9 0h11" class="s1" id="zm1"/><path d="M0 10h7c3 5 8 10 13 10" class="s1" id="zmd"/><path d="M0 10h7c3-5 8-10 13-10" class="s1" id="zmu"/><path d="M0 10h20" class="s1" id="zmz"/><marker id="arrowhead" style="fill:#0041c4" markerHeight="7" markerWidth="10" markerUnits="strokeWidth" viewBox="0 -4 11 8" refX="15" refY="0" orient="auto"><path d="m0-4 11 4L0 4z"/></marker><marker id="arrowtail" style="fill:#0041c4" markerHeight="7" markerWidth="10" markerUnits="strokeWidth" viewBox="-11 -4 11 8" refX="-15" refY="0" orient="auto"><path d="m0-4-11 4L0 4z"/></marker><marker id="tee" style="fill:#0041c4" markerHeight="6" markerWidth="1" markerUnits="strokeWidth" viewBox="0 0 1 6" refX="0" refY="3" orient="auto"><path d="M0 0v6" style="stroke:#0041c4;stroke-width:2"/></marker></defs>class=&quot;WaveDrom&quot;&gt;<g id="waves_5"><path style="stroke:none;fill:#fff" d="M0 0h580v106H0z"/><g transform="translate(80.5 46.5)" id="lanes_5"><g id="gmarks_5"><g style="stroke:#888;stroke-width:.5;stroke-dasharray:1,3"><path id="gmark_0_5" d="M0 0v60"/><path id="gmark_1_5" d="M40 0v60"/><path id="gmark_2_5" d="M80 0v60"/><path id="gmark_3_5" d="M120 0v60"/><path id="gmark_4_5" d="M160 0v60"/><path id="gmark_5_5" d="M200 0v60"/><path id="gmark_6_5" d="M240 0v60"/><path id="gmark_7_5" d="M280 0v60"/><path id="gmark_8_5" d="M320 0v60"/><path id="gmark_9_5" d="M360 0v60"/><path id="gmark_10_5" d="M400 0v60"/><path id="gmark_11_5" d="M440 0v60"/><path id="gmark_12_5" d="M480 0v60"/></g><text x="240" y="-13" text-anchor="middle" xml:space="preserve"><tspan>Dual Edge Symmetric Waveform, Complementary</tspan></text></g><g transform="translate(0 5)" id="wavelane_0_5"><text x="-10" y="15" class="info" text-anchor="end" xml:space="preserve"><tspan>pwm_A</tspan></text><g id="wavelane_draw_0_5"><use xlink:href="#000"/><use transform="translate(20)" xlink:href="#000"/><use transform="translate(40)" xlink:href="#0m1"/><use transform="translate(60)" xlink:href="#111"/><use transform="translate(80)" xlink:href="#111"/><use transform="translate(100)" xlink:href="#111"/><use transform="translate(120)" xlink:href="#111"/><use transform="translate(140)" xlink:href="#111"/><use transform="translate(160)" xlink:href="#1m0"/><use transform="translate(180)" xlink:href="#000"/><use transform="translate(200)" xlink:href="#000"/><use transform="translate(220)" xlink:href="#000"/><use transform="translate(240)" xlink:href="#000"/><use transform="translate(260)" xlink:href="#000"/><use transform="translate(280)" xlink:href="#000"/><use transform="translate(300)" xlink:href="#000"/><use transform="translate(320)" xlink:href="#0m1"/><use transform="translate(340)" xlink:href="#111"/><use transform="translate(360)" xlink:href="#111"/><use transform="translate(380)" xlink:href="#111"/><use transform="translate(400)" xlink:href="#111"/><use transform="translate(420)" xlink:href="#111"/><use transform="translate(440)" xlink:href="#1m0"/><use transform="translate(460)" xlink:href="#000"/></g></g><g transform="translate(0 35)" id="wavelane_1_5"><text x="-10" y="15" class="info" text-anchor="end" xml:space="preserve"><tspan>pwm_B</tspan></text><g id="wavelane_draw_1_5"><use xlink:href="#111"/><use transform="translate(20)" xlink:href="#111"/><use transform="translate(40)" xlink:href="#111"/><use transform="translate(60)" xlink:href="#111"/><use transform="translate(80)" xlink:href="#1m0"/><use transform="translate(100)" xlink:href="#000"/><use transform="translate(120)" xlink:href="#0m1"/><use transform="translate(140)" xlink:href="#111"/><use transform="translate(160)" xlink:href="#111"/><use transform="translate(180)" xlink:href="#111"/><use transform="translate(200)" xlink:href="#111"/><use transform="translate(220)" xlink:href="#111"/><use transform="translate(240)" xlink:href="#111"/><use transform="translate(260)" xlink:href="#111"/><use transform="translate(280)" xlink:href="#111"/><use transform="translate(300)" xlink:href="#111"/><use transform="translate(320)" xlink:href="#111"/><use transform="translate(340)" xlink:href="#111"/><use transform="translate(360)" xlink:href="#1m0"/><use transform="translate(380)" xlink:href="#000"/><use transform="translate(400)" xlink:href="#0m1"/><use transform="translate(420)" xlink:href="#111"/><use transform="translate(440)" xlink:href="#111"/><use transform="translate(460)" xlink:href="#111"/></g></g></g></g></svg>