<svg xmlns="http://www.w3.org/2000/svg" xmlns:xlink="http://www.w3.org/1999/xlink" width="542.515" height="277.115"><defs><clipPath id="c"><path d="M156 9.602h2v217.437h-2Zm0 0"/></clipPath><clipPath id="d"><path d="M246 9.602h2v217.437h-2Zm0 0"/></clipPath><clipPath id="e"><path d="M335 9.602h3v217.437h-3Zm0 0"/></clipPath><clipPath id="f"><path d="M425 9.602h2v217.437h-2Zm0 0"/></clipPath><clipPath id="g"><path d="M515 9.602h.95v217.437H515Zm0 0"/></clipPath><clipPath id="h"><path d="M69.547 198h446.402v2H69.547Zm0 0"/></clipPath><clipPath id="i"><path d="M69.547 164h446.402v3H69.547Zm0 0"/></clipPath><clipPath id="j"><path d="M69.547 131h446.402v2H69.547Zm0 0"/></clipPath><clipPath id="k"><path d="M69.547 97h446.402v3H69.547Zm0 0"/></clipPath><clipPath id="l"><path d="M69.547 64h446.402v2H69.547Zm0 0"/></clipPath><clipPath id="m"><path d="M69.547 31h446.402v2H69.547Zm0 0"/></clipPath><clipPath id="n"><path d="M69.547 18H490v164H69.547Zm0 0"/></clipPath><clipPath id="o"><path d="M69.547 18H491v161H69.547Zm0 0"/></clipPath><clipPath id="p"><path d="M96 26h419.95v193H96Zm0 0"/></clipPath><clipPath id="b"><path d="M0 0h543v278H0z"/></clipPath><filter id="a" filterUnits="objectBoundingBox" x="0%" y="0%" width="100%" height="100%"><feColorMatrix in="SourceGraphic" values="0 0 0 0 1 0 0 0 0 1 0 0 0 0 1 0 0 0 1 0"/></filter><mask id="r"><g filter="url(#a)"><path style="fill:#000;fill-opacity:.8;stroke:none" d="M0 0h542.515v277.115H0z"/></g></mask><g id="q" clip-path="url(#b)"><path style="fill-rule:nonzero;fill:#fff;fill-opacity:1;stroke-width:1;stroke-linecap:butt;stroke-linejoin:miter;stroke:#ccc;stroke-opacity:1;stroke-miterlimit:4" d="M59.162 165.281h101.086c1.333 0 2.001-.668 2.001-2v-57.713c0-1.333-.668-2-2.001-2H59.162c-1.336 0-2 .667-2 2v57.712c0 1.333.664 2.001 2 2.001Zm0 0" transform="scale(1.33333)"/></g></defs><path style="stroke:none;fill-rule:nonzero;fill:#fff;fill-opacity:1" d="M69.547 227.04h446.402V9.601H69.547Zm0 0"/><g clip-path="url(#c)"><path style="fill:none;stroke-width:.8;stroke-linecap:square;stroke-linejoin:round;stroke:#b0b0b0;stroke-opacity:1;stroke-miterlimit:4" d="M117.776 170.28V7.2" transform="scale(1.33333)"/></g><path style="fill:none;stroke-width:.8;stroke-linecap:butt;stroke-linejoin:round;stroke:#000;stroke-opacity:1;stroke-miterlimit:4" d="M.001 0v3.5" transform="matrix(1.33333 0 0 1.33333 157.033 227.04)"/><path style="stroke:none;fill-rule:nonzero;fill:#000;fill-opacity:1" d="M146.867 245.398h4.59v1.106h-6.172v-1.106c.5-.515 1.18-1.21 2.04-2.078.863-.87 1.405-1.433 1.624-1.687.422-.473.715-.871.883-1.2a2.1 2.1 0 0 0 .25-.964c0-.52-.18-.938-.543-1.266-.363-.324-.836-.488-1.418-.488-.41 0-.848.07-1.305.215-.457.144-.945.36-1.464.652v-1.328a10.31 10.31 0 0 1 1.48-.484c.461-.106.883-.16 1.266-.16 1.007 0 1.808.25 2.41.753.597.504.894 1.176.894 2.02 0 .398-.074.777-.222 1.137-.149.355-.422.777-.817 1.265-.11.125-.453.488-1.035 1.09-.582.602-1.402 1.441-2.46 2.523ZM157.027 237.652c-.675 0-1.183.332-1.527 1-.34.664-.508 1.664-.508 3.004 0 1.332.168 2.328.508 2.996.344.668.852 1 1.527 1 .684 0 1.196-.332 1.536-1 .34-.668.511-1.664.511-2.996 0-1.34-.172-2.34-.512-3.004-.34-.668-.851-1-1.535-1Zm0-1.043c1.094 0 1.926.43 2.5 1.293.575.86.864 2.114.864 3.754 0 1.633-.29 2.883-.864 3.746-.574.86-1.406 1.293-2.5 1.293-1.086 0-1.918-.433-2.496-1.293-.574-.863-.86-2.113-.86-3.746 0-1.64.286-2.894.86-3.754.578-.863 1.41-1.293 2.496-1.293ZM165.512 237.652c-.676 0-1.184.332-1.528 1-.34.664-.511 1.664-.511 3.004 0 1.332.172 2.328.511 2.996.344.668.852 1 1.528 1 .683 0 1.191-.332 1.535-1 .34-.668.512-1.664.512-2.996 0-1.34-.172-2.34-.512-3.004-.344-.668-.852-1-1.535-1Zm0-1.043c1.09 0 1.922.43 2.5 1.293.574.86.86 2.114.86 3.754 0 1.633-.286 2.883-.86 3.746-.578.86-1.41 1.293-2.5 1.293s-1.922-.433-2.496-1.293c-.575-.863-.864-2.113-.864-3.746 0-1.64.29-2.894.864-3.754.574-.863 1.406-1.293 2.496-1.293Zm0 0"/><g clip-path="url(#d)"><path style="fill:none;stroke-width:.8;stroke-linecap:square;stroke-linejoin:round;stroke:#b0b0b0;stroke-opacity:1;stroke-miterlimit:4" d="M185.071 170.28V7.2" transform="scale(1.33333)"/></g><path style="fill:none;stroke-width:.8;stroke-linecap:butt;stroke-linejoin:round;stroke:#000;stroke-opacity:1;stroke-miterlimit:4" d="M0 0v3.5" transform="matrix(1.33333 0 0 1.33333 246.762 227.04)"/><path style="stroke:none;fill-rule:nonzero;fill:#000;fill-opacity:1" d="m239.078 237.93-3.324 5.191h3.324Zm-.348-1.145h1.657v6.336h1.386v1.094h-1.386v2.289h-1.309v-2.29h-4.39v-1.269ZM246.758 237.652c-.676 0-1.188.332-1.528 1-.34.664-.511 1.664-.511 3.004 0 1.332.172 2.328.511 2.996.34.668.852 1 1.528 1 .683 0 1.191-.332 1.531-1 .344-.668.516-1.664.516-2.996 0-1.34-.172-2.34-.516-3.004-.34-.668-.848-1-1.531-1Zm0-1.043c1.09 0 1.922.43 2.496 1.293.578.86.863 2.114.863 3.754 0 1.633-.285 2.883-.863 3.746-.574.86-1.406 1.293-2.496 1.293s-1.922-.433-2.496-1.293c-.575-.863-.864-2.113-.864-3.746 0-1.64.29-2.894.864-3.754.574-.863 1.406-1.293 2.496-1.293ZM255.242 237.652c-.68 0-1.187.332-1.527 1-.34.664-.512 1.664-.512 3.004 0 1.332.172 2.328.512 2.996.34.668.847 1 1.527 1 .68 0 1.192-.332 1.531-1 .344-.668.512-1.664.512-2.996 0-1.34-.168-2.34-.512-3.004-.34-.668-.851-1-1.53-1Zm0-1.043c1.09 0 1.922.43 2.496 1.293.575.86.864 2.114.864 3.754 0 1.633-.29 2.883-.864 3.746-.574.86-1.406 1.293-2.496 1.293s-1.922-.433-2.496-1.293c-.578-.863-.863-2.113-.863-3.746 0-1.64.285-2.894.863-3.754.574-.863 1.406-1.293 2.496-1.293Zm0 0"/><g clip-path="url(#e)"><path style="fill:none;stroke-width:.8;stroke-linecap:square;stroke-linejoin:round;stroke:#b0b0b0;stroke-opacity:1;stroke-miterlimit:4" d="M252.37 170.28V7.2" transform="scale(1.33333)"/></g><path style="fill:none;stroke-width:.8;stroke-linecap:butt;stroke-linejoin:round;stroke:#000;stroke-opacity:1;stroke-miterlimit:4" d="M.001 0v3.5" transform="matrix(1.33333 0 0 1.33333 336.49 227.04)"/><path style="stroke:none;fill-rule:nonzero;fill:#000;fill-opacity:1" d="M328.168 241.121c-.59 0-1.059.203-1.406.606-.344.402-.516.957-.516 1.66 0 .699.172 1.25.516 1.656.347.406.816.61 1.406.61s1.059-.204 1.402-.61c.344-.406.516-.957.516-1.656 0-.703-.172-1.258-.516-1.66-.343-.403-.812-.606-1.402-.606Zm2.61-4.121v1.195a5.188 5.188 0 0 0-1-.355 4.199 4.199 0 0 0-1-.125c-.868 0-1.532.293-1.989.879-.457.586-.719 1.472-.785 2.656.258-.379.578-.668.965-.867a2.705 2.705 0 0 1 1.277-.305c.977 0 1.746.297 2.313.89.566.595.851 1.4.851 2.419 0 .996-.297 1.8-.887 2.402-.59.606-1.375.906-2.355.906-1.125 0-1.984-.433-2.578-1.293-.598-.863-.895-2.113-.895-3.746 0-1.539.368-2.761 1.094-3.676.73-.914 1.711-1.37 2.938-1.37.328 0 .664.03 1 .097.336.066.687.164 1.05.293ZM336.484 237.652c-.675 0-1.183.332-1.523 1-.344.664-.512 1.664-.512 3.004 0 1.332.168 2.328.512 2.996.34.668.848 1 1.523 1 .684 0 1.196-.332 1.536-1 .34-.668.511-1.664.511-2.996 0-1.34-.172-2.34-.511-3.004-.34-.668-.852-1-1.536-1Zm0-1.043c1.094 0 1.926.43 2.5 1.293.575.86.864 2.114.864 3.754 0 1.633-.29 2.883-.864 3.746-.574.86-1.406 1.293-2.5 1.293-1.086 0-1.918-.433-2.492-1.293-.578-.863-.863-2.113-.863-3.746 0-1.64.285-2.894.863-3.754.574-.863 1.406-1.293 2.492-1.293ZM344.969 237.652c-.676 0-1.184.332-1.528 1-.34.664-.507 1.664-.507 3.004 0 1.332.168 2.328.507 2.996.344.668.852 1 1.528 1 .683 0 1.195-.332 1.535-1 .34-.668.512-1.664.512-2.996 0-1.34-.172-2.34-.512-3.004-.34-.668-.852-1-1.535-1Zm0-1.043c1.09 0 1.922.43 2.5 1.293.574.86.86 2.114.86 3.754 0 1.633-.286 2.883-.86 3.746-.578.86-1.41 1.293-2.5 1.293s-1.922-.433-2.496-1.293c-.575-.863-.864-2.113-.864-3.746 0-1.64.29-2.894.864-3.754.574-.863 1.406-1.293 2.496-1.293Zm0 0"/><g clip-path="url(#f)"><path style="fill:none;stroke-width:.8;stroke-linecap:square;stroke-linejoin:round;stroke:#b0b0b0;stroke-opacity:1;stroke-miterlimit:4" d="M319.664 170.28V7.2" transform="scale(1.33333)"/></g><path style="fill:none;stroke-width:.8;stroke-linecap:butt;stroke-linejoin:round;stroke:#000;stroke-opacity:1;stroke-miterlimit:4" d="M0 0v3.5" transform="matrix(1.33333 0 0 1.33333 426.22 227.04)"/><path style="stroke:none;fill-rule:nonzero;fill:#000;fill-opacity:1" d="M417.73 241.887c-.625 0-1.117.168-1.472.504-.36.336-.535.793-.535 1.379 0 .585.175 1.046.535 1.382.355.332.847.5 1.472.5s1.118-.168 1.477-.504c.363-.335.543-.796.543-1.378 0-.586-.18-1.043-.535-1.38-.36-.335-.852-.503-1.485-.503Zm-1.312-.559c-.566-.137-1.004-.398-1.32-.785-.313-.387-.47-.86-.47-1.414 0-.777.274-1.39.829-1.844.555-.45 1.313-.676 2.273-.676.97 0 1.73.227 2.282.676.55.453.828 1.067.828 1.844 0 .555-.16 1.027-.477 1.414-.312.387-.75.648-1.308.785.632.149 1.125.438 1.48.867.352.43.531.953.531 1.575 0 .94-.289 1.667-.863 2.171-.574.5-1.398.754-2.473.754-1.07 0-1.894-.254-2.468-.754-.575-.504-.864-1.23-.864-2.171 0-.622.18-1.145.536-1.575.355-.43.851-.718 1.484-.867Zm-.48-2.074c0 .5.156.894.468 1.176.317.28.758.422 1.324.422.567 0 1.008-.141 1.329-.422.316-.282.476-.676.476-1.176 0-.504-.16-.899-.476-1.18-.32-.281-.762-.422-1.329-.422-.566 0-1.007.141-1.324.422-.312.281-.469.676-.469 1.18ZM426.215 237.652c-.676 0-1.184.332-1.527 1-.34.664-.512 1.664-.512 3.004 0 1.332.172 2.328.512 2.996.343.668.851 1 1.527 1 .683 0 1.191-.332 1.535-1 .34-.668.512-1.664.512-2.996 0-1.34-.172-2.34-.512-3.004-.344-.668-.852-1-1.535-1Zm0-1.043c1.09 0 1.922.43 2.496 1.293.578.86.863 2.114.863 3.754 0 1.633-.285 2.883-.863 3.746-.574.86-1.406 1.293-2.496 1.293s-1.922-.433-2.496-1.293c-.574-.863-.864-2.113-.864-3.746 0-1.64.29-2.894.864-3.754.574-.863 1.406-1.293 2.496-1.293ZM434.7 237.652c-.677 0-1.188.332-1.528 1-.34.664-.512 1.664-.512 3.004 0 1.332.172 2.328.512 2.996.34.668.851 1 1.527 1 .68 0 1.192-.332 1.531-1 .344-.668.512-1.664.512-2.996 0-1.34-.168-2.34-.512-3.004-.34-.668-.851-1-1.53-1Zm0-1.043c1.09 0 1.921.43 2.495 1.293.575.86.864 2.114.864 3.754 0 1.633-.29 2.883-.864 3.746-.574.86-1.406 1.293-2.496 1.293s-1.922-.433-2.496-1.293c-.574-.863-.863-2.113-.863-3.746 0-1.64.289-2.894.863-3.754.574-.863 1.406-1.293 2.496-1.293Zm0 0"/><g clip-path="url(#g)"><path style="fill:none;stroke-width:.8;stroke-linecap:square;stroke-linejoin:round;stroke:#b0b0b0;stroke-opacity:1;stroke-miterlimit:4" d="M386.962 170.28V7.2" transform="scale(1.33333)"/></g><path style="fill:none;stroke-width:.8;stroke-linecap:butt;stroke-linejoin:round;stroke:#000;stroke-opacity:1;stroke-miterlimit:4" d="M.001 0v3.5" transform="matrix(1.33333 0 0 1.33333 515.948 227.04)"/><path style="stroke:none;fill-rule:nonzero;fill:#000;fill-opacity:1" d="M500.637 245.398h2.148v-7.418l-2.34.47v-1.196l2.325-.469h1.316v8.613h2.148v1.106h-5.597ZM511.703 237.652c-.676 0-1.187.332-1.527 1-.34.664-.512 1.664-.512 3.004 0 1.332.172 2.328.512 2.996.34.668.851 1 1.527 1 .68 0 1.192-.332 1.531-1 .344-.668.512-1.664.512-2.996 0-1.34-.168-2.34-.512-3.004-.34-.668-.851-1-1.53-1Zm0-1.043c1.09 0 1.922.43 2.496 1.293.574.86.864 2.114.864 3.754 0 1.633-.29 2.883-.864 3.746-.574.86-1.406 1.293-2.496 1.293s-1.922-.433-2.496-1.293c-.574-.863-.863-2.113-.863-3.746 0-1.64.289-2.894.863-3.754.574-.863 1.406-1.293 2.496-1.293ZM520.184 237.652c-.676 0-1.184.332-1.528 1-.34.664-.508 1.664-.508 3.004 0 1.332.168 2.328.508 2.996.344.668.852 1 1.528 1 .683 0 1.195-.332 1.535-1 .34-.668.511-1.664.511-2.996 0-1.34-.171-2.34-.511-3.004-.34-.668-.852-1-1.535-1Zm0-1.043c1.09 0 1.925.43 2.5 1.293.574.86.863 2.114.863 3.754 0 1.633-.29 2.883-.863 3.746-.575.86-1.41 1.293-2.5 1.293-1.086 0-1.918-.433-2.496-1.293-.575-.863-.86-2.113-.86-3.746 0-1.64.285-2.894.86-3.754.578-.863 1.41-1.293 2.496-1.293ZM528.668 237.652c-.676 0-1.184.332-1.527 1-.34.664-.512 1.664-.512 3.004 0 1.332.172 2.328.512 2.996.343.668.851 1 1.527 1 .684 0 1.191-.332 1.535-1 .34-.668.512-1.664.512-2.996 0-1.34-.172-2.34-.512-3.004-.344-.668-.851-1-1.535-1Zm0-1.043c1.09 0 1.922.43 2.496 1.293.578.86.863 2.114.863 3.754 0 1.633-.285 2.883-.863 3.746-.574.86-1.406 1.293-2.496 1.293s-1.922-.433-2.496-1.293c-.574-.863-.863-2.113-.863-3.746 0-1.64.289-2.894.863-3.754.574-.863 1.406-1.293 2.496-1.293ZM280.129 255.379v2.07h2.465v.934h-2.465v3.957c0 .594.082.976.242 1.144.164.172.496.254.996.254h1.227v1.004h-1.227c-.926 0-1.566-.172-1.918-.515-.347-.348-.523-.977-.523-1.887v-3.957h-.883v-.934h.883v-2.07ZM284.172 257.45h1.195v7.292h-1.195Zm0-2.84h1.195v1.519h-1.195ZM293.55 258.852c.302-.54.66-.938 1.079-1.192.414-.258.906-.383 1.469-.383.761 0 1.347.266 1.757.797.415.531.622 1.285.622 2.266v4.402h-1.207v-4.363c0-.7-.122-1.215-.372-1.555-.246-.336-.625-.508-1.132-.508-.621 0-1.11.207-1.473.622-.36.41-.54.972-.54 1.683v4.121h-1.202v-4.363c0-.703-.125-1.223-.371-1.559-.246-.336-.63-.504-1.145-.504-.613 0-1.101.207-1.46.622-.36.414-.54.976-.54 1.683v4.121h-1.207v-7.293h1.207v1.133c.274-.445.598-.773.98-.988.383-.211.837-.317 1.364-.317.527 0 .98.133 1.351.403.372.27.645.66.82 1.172ZM307.102 260.797v.586h-5.508c.05.824.3 1.453.746 1.883.441.433 1.062.648 1.855.648.461 0 .907-.055 1.34-.168.43-.113.86-.281 1.285-.508v1.133c-.43.184-.87.32-1.32.418-.453.094-.91.145-1.375.145-1.164 0-2.086-.34-2.766-1.016-.675-.68-1.015-1.594-1.015-2.75 0-1.195.32-2.14.965-2.84.644-.703 1.515-1.05 2.609-1.05.98 0 1.754.312 2.328.945.57.632.856 1.488.856 2.574Zm-1.2-.352c-.007-.656-.191-1.175-.55-1.566-.356-.395-.832-.59-1.422-.59-.668 0-1.203.191-1.606.566-.398.38-.633.91-.691 1.598Zm0 0"/><g clip-path="url(#h)"><path style="fill:none;stroke-width:.8;stroke-linecap:square;stroke-linejoin:round;stroke:#b0b0b0;stroke-opacity:1;stroke-miterlimit:4" d="M52.16 149.071h334.802" transform="scale(1.33333)"/></g><path style="fill:none;stroke-width:.8;stroke-linecap:butt;stroke-linejoin:round;stroke:#000;stroke-opacity:1;stroke-miterlimit:4" d="M0 .001H-3.5" transform="matrix(1.33333 0 0 1.33333 69.548 198.76)"/><path style="stroke:none;fill-rule:nonzero;fill:#000;fill-opacity:1" d="M29.25 199.094h8.348v1.105H29.25ZM40.664 202.719h2.148v-7.414l-2.34.468v-1.199l2.329-.469h1.312v8.614h2.149v1.105h-5.598ZM48.918 202.172h1.375v1.652h-1.375ZM53.172 194.105h5.16v1.11h-3.957v2.379c.191-.063.379-.114.57-.145.192-.031.383-.047.575-.047 1.085 0 1.945.297 2.578.891.632.594.953 1.398.953 2.414 0 1.047-.328 1.86-.977 2.441-.652.579-1.57.868-2.758.868-.406 0-.824-.036-1.246-.106a9.171 9.171 0 0 1-1.308-.312v-1.32c.386.21.793.37 1.207.472.418.105.86.156 1.324.156.75 0 1.344-.195 1.781-.59.438-.394.66-.93.66-1.609 0-.676-.222-1.21-.66-1.605-.437-.399-1.031-.594-1.781-.594-.352 0-.703.039-1.055.117-.347.078-.703.2-1.066.363Zm0 0"/><g clip-path="url(#i)"><path style="fill:none;stroke-width:.8;stroke-linecap:square;stroke-linejoin:round;stroke:#b0b0b0;stroke-opacity:1;stroke-miterlimit:4" d="M52.16 124.028h334.802" transform="scale(1.33333)"/></g><path style="fill:none;stroke-width:.8;stroke-linecap:butt;stroke-linejoin:round;stroke:#000;stroke-opacity:1;stroke-miterlimit:4" d="M0-.001H-3.5" transform="matrix(1.33333 0 0 1.33333 69.548 165.372)"/><path style="stroke:none;fill-rule:nonzero;fill:#000;fill-opacity:1" d="M29.25 165.703h8.348v1.11H29.25ZM40.664 169.332h2.148v-7.418l-2.34.469v-1.196l2.329-.468h1.312v8.613h2.149v1.106h-5.598ZM48.918 168.785h1.375v1.653h-1.375ZM55.969 161.582c-.676 0-1.188.336-1.528 1-.34.668-.511 1.668-.511 3.008 0 1.332.172 2.328.511 2.996.34.668.852 1 1.528 1 .68 0 1.191-.332 1.531-1 .344-.668.516-1.664.516-2.996 0-1.34-.172-2.34-.516-3.008-.34-.664-.852-1-1.531-1Zm0-1.039c1.09 0 1.922.43 2.496 1.293.578.86.863 2.113.863 3.754 0 1.633-.285 2.883-.863 3.746-.574.86-1.406 1.293-2.496 1.293s-1.922-.434-2.496-1.293c-.575-.863-.864-2.113-.864-3.746 0-1.64.29-2.895.864-3.754.574-.863 1.406-1.293 2.496-1.293Zm0 0"/><g clip-path="url(#j)"><path style="fill:none;stroke-width:.8;stroke-linecap:square;stroke-linejoin:round;stroke:#b0b0b0;stroke-opacity:1;stroke-miterlimit:4" d="M52.16 98.988h334.802" transform="scale(1.33333)"/></g><path style="fill:none;stroke-width:.8;stroke-linecap:butt;stroke-linejoin:round;stroke:#000;stroke-opacity:1;stroke-miterlimit:4" d="M0 0H-3.5" transform="matrix(1.33333 0 0 1.33333 69.548 131.985)"/><path style="stroke:none;fill-rule:nonzero;fill:#000;fill-opacity:1" d="M29.25 132.316h8.348v1.106H29.25ZM43.246 128.195c-.676 0-1.184.336-1.527 1-.34.664-.508 1.668-.508 3.004 0 1.332.168 2.332.508 3 .343.664.851 1 1.527 1 .684 0 1.195-.336 1.535-1 .34-.668.512-1.668.512-3 0-1.336-.172-2.34-.512-3.004-.34-.664-.851-1-1.535-1Zm0-1.039c1.09 0 1.922.43 2.5 1.293.574.86.86 2.11.86 3.75 0 1.637-.286 2.887-.86 3.75-.578.86-1.41 1.29-2.5 1.29s-1.922-.43-2.496-1.29c-.574-.863-.863-2.113-.863-3.75 0-1.64.289-2.89.863-3.75.574-.863 1.406-1.293 2.496-1.293ZM48.918 135.395h1.375v1.656h-1.375ZM53.172 127.328h5.16v1.11h-3.957v2.382a3.408 3.408 0 0 1 1.145-.195c1.085 0 1.945.297 2.578.89.632.594.953 1.403.953 2.415 0 1.047-.328 1.86-.977 2.441-.652.578-1.57.867-2.758.867-.406 0-.824-.035-1.246-.101-.422-.07-.86-.176-1.308-.313V135.5c.386.21.793.371 1.207.477.418.101.86.156 1.324.156.75 0 1.344-.2 1.781-.594.438-.394.66-.93.66-1.61 0-.675-.222-1.21-.66-1.605-.437-.394-1.031-.594-1.781-.594-.352 0-.703.04-1.055.118-.347.078-.703.199-1.066.363Zm0 0"/><g clip-path="url(#k)"><path style="fill:none;stroke-width:.8;stroke-linecap:square;stroke-linejoin:round;stroke:#b0b0b0;stroke-opacity:1;stroke-miterlimit:4" d="M52.16 73.948h334.802" transform="scale(1.33333)"/></g><path style="fill:none;stroke-width:.8;stroke-linecap:butt;stroke-linejoin:round;stroke:#000;stroke-opacity:1;stroke-miterlimit:4" d="M0 0H-3.5" transform="matrix(1.33333 0 0 1.33333 69.548 98.597)"/><path style="stroke:none;fill-rule:nonzero;fill:#000;fill-opacity:1" d="M43.246 94.809c-.676 0-1.184.332-1.523 1-.344.664-.512 1.668-.512 3.004 0 1.332.168 2.332.512 2.996.34.668.847 1 1.523 1 .684 0 1.195-.332 1.535-1 .34-.664.512-1.664.512-2.996 0-1.336-.172-2.34-.512-3.004-.34-.668-.851-1-1.535-1Zm0-1.043c1.094 0 1.926.433 2.5 1.293.574.863.863 2.113.863 3.754 0 1.636-.289 2.886-.863 3.746-.574.863-1.406 1.293-2.5 1.293-1.086 0-1.918-.43-2.492-1.293-.578-.86-.863-2.11-.863-3.746 0-1.641.285-2.891.863-3.754.574-.86 1.406-1.293 2.492-1.293ZM48.918 102.008h1.375v1.656h-1.375ZM55.969 94.809c-.676 0-1.184.332-1.528 1-.34.664-.507 1.668-.507 3.004 0 1.332.168 2.332.507 2.996.344.668.852 1 1.528 1 .683 0 1.195-.332 1.535-1 .34-.664.512-1.664.512-2.996 0-1.336-.172-2.34-.512-3.004-.34-.668-.852-1-1.535-1Zm0-1.043c1.09 0 1.922.433 2.5 1.293.574.863.86 2.113.86 3.754 0 1.636-.286 2.886-.86 3.746-.578.863-1.41 1.293-2.5 1.293s-1.922-.43-2.496-1.293c-.575-.86-.864-2.11-.864-3.746 0-1.641.29-2.891.864-3.754.574-.86 1.406-1.293 2.496-1.293Zm0 0"/><g clip-path="url(#l)"><path style="fill:none;stroke-width:.8;stroke-linecap:square;stroke-linejoin:round;stroke:#b0b0b0;stroke-opacity:1;stroke-miterlimit:4" d="M52.16 48.905h334.802" transform="scale(1.33333)"/></g><path style="fill:none;stroke-width:.8;stroke-linecap:butt;stroke-linejoin:round;stroke:#000;stroke-opacity:1;stroke-miterlimit:4" d="M0-.001H-3.5" transform="matrix(1.33333 0 0 1.33333 69.548 65.209)"/><path style="stroke:none;fill-rule:nonzero;fill:#000;fill-opacity:1" d="M43.246 61.422c-.676 0-1.184.332-1.523 1-.344.664-.512 1.664-.512 3.004 0 1.332.168 2.328.512 2.996.34.668.847 1 1.523 1 .684 0 1.195-.332 1.535-1 .34-.668.512-1.664.512-2.996 0-1.34-.172-2.34-.512-3.004-.34-.668-.851-1-1.535-1Zm0-1.043c1.094 0 1.926.43 2.5 1.293.574.863.863 2.113.863 3.754 0 1.636-.289 2.883-.863 3.746-.574.863-1.406 1.293-2.5 1.293-1.086 0-1.918-.43-2.492-1.293-.578-.863-.863-2.11-.863-3.746 0-1.64.285-2.89.863-3.754.574-.863 1.406-1.293 2.492-1.293ZM48.918 68.621h1.375v1.652h-1.375ZM53.172 60.555h5.16v1.105h-3.957v2.383a3.564 3.564 0 0 1 1.145-.195c1.085 0 1.945.3 2.578.894.636.594.953 1.399.953 2.414 0 1.047-.324 1.86-.977 2.438-.652.582-1.57.87-2.754.87-.41 0-.824-.034-1.25-.105a9.732 9.732 0 0 1-1.308-.312v-1.324c.39.215.793.37 1.21.476a5.34 5.34 0 0 0 1.321.156c.75 0 1.344-.195 1.781-.59.442-.394.66-.933.66-1.609 0-.676-.218-1.21-.66-1.605-.437-.399-1.031-.594-1.781-.594-.352 0-.703.04-1.055.117-.347.074-.703.2-1.066.364Zm0 0"/><g clip-path="url(#m)"><path style="fill:none;stroke-width:.8;stroke-linecap:square;stroke-linejoin:round;stroke:#b0b0b0;stroke-opacity:1;stroke-miterlimit:4" d="M52.16 23.865h334.802" transform="scale(1.33333)"/></g><path style="fill:none;stroke-width:.8;stroke-linecap:butt;stroke-linejoin:round;stroke:#000;stroke-opacity:1;stroke-miterlimit:4" d="M0 0H-3.5" transform="matrix(1.33333 0 0 1.33333 69.548 31.821)"/><path style="stroke:none;fill-rule:nonzero;fill:#000;fill-opacity:1" d="M40.664 35.781h2.148v-7.418l-2.335.469v-1.2l2.324-.468h1.312v8.617h2.149v1.106h-5.598ZM48.918 35.23h1.375v1.657h-1.375ZM55.969 28.031c-.676 0-1.184.336-1.528 1-.34.668-.507 1.668-.507 3.004 0 1.332.168 2.332.507 3 .344.664.852 1 1.528 1 .683 0 1.195-.336 1.535-1 .34-.668.512-1.668.512-3 0-1.336-.172-2.336-.512-3.004-.34-.664-.852-1-1.535-1Zm0-1.039c1.09 0 1.922.43 2.5 1.293.574.86.86 2.11.86 3.75 0 1.637-.286 2.887-.86 3.75-.578.86-1.41 1.29-2.5 1.29s-1.922-.43-2.496-1.29c-.575-.863-.864-2.113-.864-3.75 0-1.64.29-2.89.864-3.75.574-.863 1.406-1.293 2.496-1.293ZM12.441 114.945l3.547 2.64 3.742-2.772v1.41l-2.863 2.125 2.863 2.12v1.415l-3.812-2.832-3.477 2.59v-1.414l2.598-1.93-2.598-1.934Zm0 0"/><g clip-path="url(#n)"><path style="fill:none;stroke-width:1.5;stroke-linecap:square;stroke-linejoin:round;stroke:#1f77b4;stroke-opacity:1;stroke-miterlimit:4" d="m52.16 66.015.337 1.857.337 10.94.674-3.815.337-11.373.334 3.9.337-5.377.337-.301.336-12.979 1.008 20.915.674 6.979.337-12.976.337-.313.337-5.116.337-.638.334 2.177.337-8.174.337-.7.336-.326.337-4.166.337 3.695.337 11.654.671 5.16.337 6.037.337-6.79.337-.472.337-.75.337 4.467.334 6.566 1.01-16.237.337-.489.337-2.103.337-4.386.334 1.093.337-2.587.337 7.617.337 2.868.337-3.794.337-1.664.334-7.353.337-1.427.337-6.027.336 7.577.674-5.007.337 2.634.334-6.381.337 13.854.337-9.844.337 9.431.337-6.929.337-2.98.67-11.946.338 6.908.336-1.702.337 1.09.337 4.262.337-.126.337-3.386.334 1.069.337 4.88.674-1.38.337-15.389.337 10.125.337-2.015.334-11.989.336 9.49.337 1.658.337-2.083.337.592.337 7.754.671-13.453.337 1.052.337-4.207.337-.943.337 10.974.337-5.077.334 4.362.337 1.714.336-3.758.337 3.29.337-2.872.337-1.043.337.774.334-7.453.337 9.577.337-4.652.337 2.786.337-5.265.337 2.212.337-5.575.67 9.287.337-5.912.337 6.228.337 3.935.337.179.337 4.631.67-8.452.338-2.557.337-4.881.337-1.21.337-.516 1.007 1.922.337-2.713.337 8.631.337 3.082.337-7.122.67 15.732.338-9.58.337-.111.337-4.049.337-2.37.337-3.7.333 3.691.337 5.098.337-4.582.337-6.741.337 8.944.674-6.393.334 11.35.337.337.337-3.976.337 1.454.337-2.145.337-.914.334-3.343.336 1.568.337-.94.337-3.807.337 3.165.337-3.416.337 2.865.334-8.38.337 8.526.337-6.448.337 1.348.337-2.81.337 7.207.336-5.262.334.592.337-2.159.337 10.969.337-9.443.337 2.602.337 3.87.337-10.538.334 2.323.337-.21.337-1.732.337 3.72.337-.23.336 5.759.337-3.404.334 8.458.337-6.665.337 10.242.337-6.267.337-1.137.337-2.87.334-5.116.337 7.617.337-2.487.337-4.57.337 13.828.337-9.615.336-.041.334 4.775.337-7.99.337 6.273.337-1.72.337-8.548.337 8.12.337-3.128.334-6.117.337.272.337 4.42.337-6.137.337 2.543.336.478.337 2.622.334-2.33.337 1.627.337-.97.674 10.087.337-4.94.337 4.588.334 1.963.337-8.736.337-3.094.337 13.36.336-10.052.337-1.298.334 8.754.674-2.61.337 4.734.337 2.376.674-5.2.334 1.517.337-4.629.674 8.766.337-3.753.336 10.005.337-7.612.334-.653.337 4.36.337-9.636.337 10.579.337-3.217.337 1.36.67 6.137.338-6.035.337 3.55.337-2.639.336.694.337-1.315.334 6.612.337 2.877.337 4.096.337-11.789.337 7.57.337-1.684.337-2.617.334 10.606.337-2.988.337.6.337-.753.336-2.554.337 4.752.337-3.636.334 4.846.337-2.142.337-10.969.337 8.97.337-6.116.337-.393.337 9.604.334-2.452.337-4.164.337-.468.336-3.2.337-1.91.337 5.596.337 2.18.334-1.635.337.023.337-4.277.337 6.287.337-4.503.337 10.002.334-5.276.337-1.755.337 6.697.337-2.411.336 7.764.337-2.297.337.181.334 1.24.337-6.815.337 2.32.337-.489.337-2.698.337-1.336.337 1.017.334-.607.337.42.337 4.991.336.953.337-.329.674 9.583.334 2.432.337 4.008.337.63.337-5.367.337 11.941.337-9.647.337 4.177.334-5.05.337 5.384.336-4.74.337 4.201.337.156.337 11.144.334-5.048.674-17.642.337 10.054.337-4.514.337 1.77.337 10.071.334-11.273.337-.785.336-1.653 1.011 16.023.337-2.356.334 3.373.337-.534.337-1.441.337-13.43.337 9.454.674 7.278.334-5.315.337 9.194.336-8.227.337 8.095.337 3.738.337 7.711.334-.419.337-1.62.674-12.812.337 1.562.337.914.67 8.599.338-1.688.336-4.983.337-3.22.337 3.448.674-9.02.334 3.91.337 9.329.337 4.87.337-2.69.337 3.638.337-2.674.337 6.257.334-6.89.336 4.084.337-1.91.337-4.128.337 1.45.337 7.219.671 4.212.337.118.337 5.32.674-24.99.337 14.156.334-1.36.337 7.67.336-3.366.337 7.058.337-10.767.337.838.671 13.278.337-3.689.337-11.074.337-4.444.337-1.916.337 7.819.337 4.76.334-.163.336 3.934.337-2.733.337 3.111.337 4.632.337 7.523.337-.342.334-6.311.337.973 1.01-14.44.338 14.109.336 2.707.334 1.365.337-14.666.337 14.675.337 2.765.337 6.003.337-17.563.334.521.337.794.337 5.077.337-1.104.337-.138.337 2.165.337 7.362.67-11.923.337.46.337-.578.337 1.562.337-.99.337 3.351.334-2.651.337 4.904.337 1.81.337 9.938.337-7.257.337 4.987.336 2.28.334-1.677.337-.137.337-11.104.337 1.638.337-4.934.337.528.337.876.334-6.625.337 7.278.337-11.01.337 10.843.337-2.426.336 13.603.334-1.829.337-2.742.337-9 .337 6.355.337-3.15.337 2.338.337-12.258.334 5.907.337-4.934.337 5.57.337 1.91.337-2.245.336 3.381.337-1.825.334 4.263.337.542.337 2.537.337 8.364.337-7.3.337 5.487.337-4.304.334 6.37.337-2.122.337 4.13.337 2.339.673-18.314.334-3.703.337 3.95.337 6.465.337-3.615.337-6.46.337 2.083.337-2.276.334 4.886.337 3.238.337-3.01.337 4.647.337-2.601.336 2.554.337-1.028.671 5.485.337.922.337-.682.337-.985.337-2.689.337-7.386.334 2.56.337 1.653.337-2.584.337 5.332.336-4.805.337 1.697.337-6.815.334 3.367.674 14.704.674-9.78.337-2.657.67 10.632.338-5.405.337-.51.336 3.536.337 1.395.337 2.332.671-3.94.337-2.83.337-8.48.337-1.165.337-4.064.67 11.35.338 1.412 1.01-7.017.337 6.44.337-8.55.334 1.808.337-7.64.337-.062.337.273.337 2.133.337 8.293.337-9.1 1.008 10.26.336-2.422.337-.542.337 1.57.334.501.337.26.337.045.337-6.337.337-1.149.337-8.941.337-1.623.334 2.212.337 4.664.337 7.43.336 1.848.337-6.167.337 1.937.337-2.092.334 12.554.337-21.056.337 5.83.337-4.116.337 21.858.337-13.822.337 2.068.334-11.41.337 1.165.337-9.047.673 12.282.337-1.184.334-2.35.337-4.467.337 4.441.337.61.674-5.239.337 4.858.334-1.254.337 8.423.337-.827.336 1.638.337-13.69.337 9.647.337 3.246.334 15.018.337-18.27.337-5.042.337-7.54.337.014.337 5.34.337-5.56.334-8.847.337 1.453.336-7.582.337 13.957.337-2.019.337 11.118.337-7.494.334 4.462.337-4.459.337 3.803.337.9.337-2.207.337-3.975.334-7.202.337 1.755.336 5.713.337 1.57.337-6.413.337-10.385.337-.906.334 1.105.337-4.743.337 6.073.337 3.37.337-.34.337-2.268.337 2.22.334-.079.337 1.644.336 4.714.337-2.08.337 1.57.337-1.45.337 6.94.334-1.195.337-16.805.337 6.809.337-11.763.337 2.487.337-3.413.337 5.347.334 3.469.336.003.337-1.618.337 3.03.674-9.944.334-.91.337-4.038.337 11.089.337-7.822.337 1.383 1.008 11.478.336-2.938.337-13.506.337 7.031.337-7.875.337 1.23.337 4.284.334-.003.337 5.455.337-8.036.337 8.276.337-8.818.337 3.744.337-4.89.333.106.337-5.83.337-1.29.674 9.487.337-5.33.671-2.99.337 3.117.337-5.025.337 2.84.674-5.24.334 1.703.336-.87.674 7.702.337-2.86.337-1.816.671-6.814.337-4.89.674 1.014.337-.633.337 2.906.336.613.334 3.228.337-3.14.337.682.337 1.207.337-10.966.337 9.384.337-7.476.334-2.795.337 2.841.337.156.337-7.52.337 6.849.336-.103.334-6.507.337 9.68.337-8.66.337 9.12.337-3.782.337 1.816.337-4.488.334 3.504.337-10.547.337 5.8.337-1.224.337-.8.337 8.385.336-4.878.334 2.429.337.946.337-6.627.337-1.14.337 11.35.337-10.333.337 5.581.334-1.558.337-3.425.337-.697.337-3.03.337 5.18.336-4.459.337 3.302.671 3.413.337-12.217.337 7.515.337-7.199.337-4.116.334 4.828.337-.076.337-6.196.337 1.09.337 1.6.336-2.087.337 4.199.334 6.43.337-5.021.337-.451.337 6.146.337-11.054.337 12.343.337-10.854.334 12.307.674-12.512.337.77.337-5.484.336 2.426.337-.364.334 7.776.674-4.559.674-5.643.337 3.387.337-4.268.334 3.477.337-3.7.337 3.302.337-5.218.336 2.174.337 3.26.334-4.863.337 6.238.337-3.003.337-7.38.337 13.388.337-12.257.337 5.41.334-3.462.337 4.53.674-7.975.336 2.244.337 4.822.337-.08.334-2.762.337 11.05.337-8.826.337-3.214.337-.791.337 1.898.337.909.334-1.635.337 3.867.337-.158.336 7.239.337-8.915.337 8.027.334-2.174.337-5.115.337 4.48.337 2.578.337.63.337.014.337 4.313.334-.794.337-3.612.337-.229.337-6.94.336 6.641.337-12.7.337 15.566.334-7.448.337-4.16.337 10.696.337-11.522.337 1.67.337 11.683.337-11.81.334 14.298.337-4.781.337-2.998.336 5.204.337-1.998.337-.42.337 2.177.334 3.106.337-5.476.337-1.459.337 3.243.337-8.651.337 10.286.334-3.369.337-.61.337 5.895.336-6.949.337 1.635.337-9.032.337 8.47.334-8.55.337 4.272.337.111.337-7.36.337 11.684.337-7.74.337-2.431.334 4.532.337-2.596.336.243.337 3.947.337-2.453.337 3.156.337-7.755.334 8.877.337-.07.337-3.604.337 9.636.337-.645.337.229.337-1.925.334.026.337-3.094.336 4.498.337-4.336.337 13.297.337-6.143.334-.618.337 4.901.674-13.957.337 4.433.337-2.968.337 3.571.334-7.799.337 2.403.336 6.74.674-.078.337 14.493.337-11.716.334 13.5.337-4.412.337-9.565.337 6.987.337-7.59.337-3.206.337 8.754.334.477.336-.793.337-3.885.337 4.544.337-5.857.337 2.241.334 1.287.337-.188.337 1.093.337 6.984.337 1.98.337-4.06.337 11.092.67-3.94.337 1.21.337.729.337-4.764.337 2.291.337 5.4.334-7.489.337 2.019.337-3.932.337 4.16.337-2.865.337-.887.337 3.351.334 2.22.336-10.657.674 8.76.337-2.576.337 3.287.337-4.872.334 6.618.337-2.838.674 7.289.337-1.582.337-12.425.67 10.207.337-5.599.337 5.15.674-3.055.337.387.334 4.971.337 2.15.337-2.498.337 5.425.337-2.645.337.114.337-3.545.333 2.206.337 7.574.337 4.655.337 6.946.674-13.166.337 3.012.334.888.337 9.653.337-7.86.337-4.205" transform="scale(1.33333)"/></g><g clip-path="url(#o)"><path style="fill:none;stroke-width:1.5;stroke-linecap:butt;stroke-linejoin:round;stroke:#bf00bf;stroke-opacity:1;stroke-dasharray:5.55,2.4;stroke-miterlimit:4" d="m53.17 66.114.338 10.925.337 2.276.334-5.305.337-8.133.337 9.152.336-12.855.337-3.349.337 2.921.334-15.006.337 7.465.674 21.932.337-1.574.674-12.594.334 2.08.337-6.475.337-2.663.336 6.088.337-10.491.337-3.522.337.598.334-.85.337 4.603.337 16.087.337-1.09.337 7.57.674-6.14.334-3.686.337 3.328.337 9.9.336-3.721.337-8.247.337-1.582.337-5.79.334 1.009.674-7.788.337.663.337-1.117.337 10.55.334 2.25 1.01-19.743.337 2.177.337-5.326.337 9.673.671-7.494.337.164.337-4.798.337 19.9.337-16.016.337 11.971.334-13.251.337 2.065.336-10.54.337-4.454.337 9.02.337 3.874.337-1.263.334.202.337.413.337-2.127.337 1.002.337 6.393.337-.205.337-2.757.334-19.383.336 6.407.337 9.206.337-10.02.337-.135.337 1.427.334 5.361.337.22.337 6.83.674-19.03.337.935.337 1.647.334-.542.337 10.89.336-7.02.337 2.733.337 1.577.337-.909.337 1.934.334-4.427.337-1.555.337 1.72.337-6.235.337 8.938.337-3.492.337 2.956.334-7.746.336 1.081.337-2.745.674 12.42.337-8.3.337 1.49.67 13.697.338 2.449.337-11.51.337-6.218.337.39.334-.363.673-4.776.337 1.24.337 2.92.337 1.07.337-4.746.67 15.026.338-7.54.337 5.179.337 8.546.337-8.315.67-10.784.337 1.151.337-1.04.337 2.722.337 5.792.337-5.484.337-9.252.67 11.584.338-2.994.337 7.626.337-.551.337-3.334.334-.656.336-1.404.337.015.337-3.46.337.923.337.179.337-3.282.334 1.796.337-1.781.337 2.528.337-7.681.337 5 .337-1.921.336 1.075.334-3.84.337 5.697.674-2.965.337-3.46.337 11.23.337-5.273.334-2.013.337 2.256.337-6.574.337.298.337 1.453.336-.228.337 2.405.334-.26.337 5.124.337-2.423.337 7.365.337-7.207.337 9.451.334-5.669.337-2.262.674-7.3.337 8.05.337 1.574.336-7.474.334 8.092.337-4.102.337-.398.337 3.562.337-6.249.337 3.405.337.591.334-7.573.337 3.75.337 1.717.337-5.183.337-3.416.336 4.037.337-.826.334 1.02.337-1.096.337 2.45.337-.93.337.657.337-1.222.337 4.954.334 7.928.337-6.155.337-.964.337 2.607.673-9.937.334 11.218.674-8.347.674 9.135.337-.118.67 2.04.338-1.492.337-2.99.337 1.186.337-3.551.336 3.603.337 7.46.334-3.836.337 9.132.337-10.632.337-2.165.337 6.232.337-6.375.337 9.958.334-4.987.674 4.703.337 6.817.336-10.09.337 1.711.334-3.105.337 6.058.337-3.243.337 8.021.337 2.382.337 6.882.337-19.737.67 11.118.338 2.174.337 6.82.336-6.24.337.196.671-.861.337 5.174.337-4.902.337 5.324.337-3.118.337-13.523.337 9.08.334-2.59.337 1.763.337 7.594.336-1.553.337-7.732.337-2.856.337-1.116.334 1.01.337 7.208.337 2.24.337-4.3.337-2.745.337-4.263.334 11.482.337-4.53.337 11.57.337-11.444.336-1.602.337 11.127.337.597.334 6.041.337-8.463.337 1.737.337 3.964.337-7.037.337-1.055.337-.51.334.331.337-2.144.337.348.336-.756.337 1.761.337 6.706.337 1.421.334-2.771.337 5.47.337 7.725.674 7.82.337-8.148.337 10.784.334-6.855.337 3.752.336-6.5.337 5.838.337-2.947.671 3.366.337 9.337.674-12.132.337-12.68.337 4.477.337 10.199.334-5.01.337 8.906 1.01-14.323.337 2.159.671 14.136.337-1.146.337 2.411.337-.445.337-2.848.337-9.457.67 9.917.338 3.451.336-2.859.337 7.028.337-6.521 1.008 17.188.337-1.617.337.548.674-12.354.337 2.528.334 1.122.673 6.762.674-6.402.337-.72.337 1.77.334-8.608.337-.112.337 2.737.337 10.418.337 2.604.337-2.9.337 9.158.334-6.694.336 4.353.337-2.61.337 2.007.674-6.545.671 11.314.337-3.644.337 7.807.337.677.337-2.484.337-9.276.334-3.02.337 12.638.336-13.195.337 14.414.337 1.48.337-6.044.337-3.498.334 6.776.337 2.493.337-.53.337.015.337-9.545.337-2.637.337.413.334 5.306.336 2.232.337.926.337 6.15.337-5.579.674 13.16.334-.131.337.014.337-1.54.337-.613.337-7.94.337-.993.336-.058.334 10.69.337-3.958.337 2.317.337-5.944.337 14.531.337-5.64.334 2.637.337-8.65.337 1.47.337-.823.337 1.324.337 1.863.337.352.333 2.487.337 4.951.337-9.647.337.005.337 3.674.337-9 .337 5.754.334 2.452.337-3.717.337 1.558.337 8.508.337-3.542.337 9.472.336-5.165.334 5.41.337 2.312.337-7.013.337 3.902.337-10.91.337 1.11.67-5.238.338 2.218.337-7.125.337 8.244.337-11.696.336 13.298.334-1.21.337 7.029.337.255.674-8.482.337 7.01.337-9.872.334 3.454.337-6.627.337 2.933.337-4.94.337 6.694.336 1.278.337-5.696.334 9.551.337-4.409.337 1.679.337 6.023.337-.345.337 6.164.337-6.475.334 8.218.337-5.113.337 3.885.674 2.968.336.023.334-10.95.337-3.033.674-1.64.337 5.519.674-8.98.334 6.118.337-7.802.674 12.135.337-9.381.336 11.136.671-6.37.337 6.548.337-.123.337-.469.337 4.413.337-2.101.337-2.915.334-.75.337-6.926.337 4.535.337-.703.336-4.617.337 10.415.337-9.77.334.996.337.334.337.553.337 7.371.337 3.812.337-7.506.334 1.781.337-.873.337.161.337 5.98.336-6.548.337 3.293.337 4.863.334-5.326.337 6.02.337-.858.337-7.295.337.862.337-8.136.337-1.937.334-.524.337 5.707.337 1.503.337.27.336.597.337-3.407.337-1.023.334 5.95.337-13.051.337 6.483.674-11.174.337 7.184.337-.72.334 3.436.337-6.065.337 8.136.336-.299.337-1.289.337 3.686.334-.856.337-1.169.337 2.426.337-.278.337-2.575.337-4.925.337.038.334-10.858.337 2.066.337 4.705.336-1.356.337 9.63.337.24.337-8.45.334 9.8.337-4.927.337 4.35.337-16.673.337 13.992.337-5.381.337 10.69.334-9.94.337 4.6.337-10.75.673-5.308.337 5.194.334 2.323.337-3.952.337 3.302.337-4.225.337 2.03.337.868.337-4.284.334 1.75.337 4.737.337-5.133.336 12.073.674-7.052.337-4.092.334 12.008.337-3.917.337 10.383.337-15.802.337-1.574.337-3.463.337-6.644.334 8.147.673-17.481.337 6.158.337-7.33.337 10.72.337.53.334 6.806.337-5.403.337 5.663.337-4.236.337 1.87.337 2.744.334-6.454.337-1.907.336-3.533.337 1.289.337 3.896.337-2.628.671-11.314.337-2.25.337.54.337-2.986.674 8.472.337-2.853.334.656.337 1.623.336-.369.337 2.651.337 4.465.337-4.977.337 5.036.334-.14.337 2.32.337-3.501.337-14.848.337 8.944.337-3.794.337-8.47.67 4.307.337 3.894.337-.243.337-.583.337 3.07.334-6.615.337-1.899.337 1.852.337-5.792.337 10.857.337-11.557.337 4.233.334 2.203.673 6.024.337-3.953.337-9.638.337 5.622.337-.964.334-7.087.337 6.182.337.96.337 5.649.337-7.233.337 6.39.337-6.607.333 3.7.337-5.17.337 5.932.337-14.496.674-1.796.334 14.314 1.01-13.093.338 1.096.337 5.622.337-9.14.334 3.735.336-3.522.337-.846.337.433.337.633.337 4.486.337 6.92.334-8.722.337-3.865.674-3.583.337-6.424.337.21 1.007 5.913.337-.595.337 3.993.337-3.955.337.384.337.937.334-12.955.337 12.63.337-8.57.337-2.683.337-1.377.336 6.041.334-9.545.337 7.202.337-.82.337-5.47.337 9.149.337-9.056.337 12.76.334-7.217.337 3.504.337-10.222.337 8.253.337-13.177.337 6.914.336-1.597.334 3.82.337 7.21.337-6.052.337-.144.337 1.436.337-5.461.337-3.088.334 16.028.337-11.385.337 3.384.337-5.83.337 1.86.336-1.67.337-2.794.334 4.877.337-3.855.337 4.014.337 1.333.337 3.419.337-16.752.334 3.44.337-2.465.337-1.04.337 3.132.337.299.336-6.982.337-.876.334 4.254.337.961.337 2.464.337 5.763.337-6.214.337-2.253.337 8.224.334-9.739.337 11.08.337-11.487.337 13.47.673-14.287.337-2.162.334-1 .337 4.09.337-.082.337 7.342 1.01-10.992.335-.99.337 4.758.337-3.094.337.287.336-3.331.337 3.844.334-3.02.337.116.337 3.326.337-3.112.337 4.14.337-2.016.337-7.96.334 9.639.337-4.887.337 2.628.337-4.265.336 3.539.337-1.817.337-4.18.334.07.337 7.433.337 3.17.337-6.127.337 5.558.674-7.52.334-1.831.674 6.421.336-2.578.337.765.337 1.063.334 10.483.337-9.689.337 1.503.337-.307.337-1.673.674 6.753.334.62.337-2.366.337 4.576.337.718.336-4.726.337-2.484.337-5.593.334 6.762.337-8.804.337 11.924.674-10.993.337 7.916.337-5.478.334-1.31.337 11.743.337-8.584.336 11.358.337-6.094.337-3.466.337 4.559.334 2.197.674-2.012.337 4.204.337-5.15.337-3.127.334 3.387.337-6.243.337 9.873.336-2.733.337-1.8.337 4.79.337-5.756.334.258.337-8.45.337 6.75.337-3.779.337 3.059.337-.648.337-7.239.334 8.628.337-1.942.336-4.087.337 1.043.337.653.337 1.438.337 2.927.334-2.991.337 1.386.337-6.243.337 7.256.337 4.084.337-4.394.337 6.234.334.308.337 2.716.336-5.608.337-1.008.337-2.279.337 7.99.334-5.084.337 15.428.337-9.231.337-2.953.337 4.353.337-3.823.337-8.455.67 2.827.337 7.43.337-10.63.337-3.568.674 19.357.334-2.716.337 9.55.337-15.626.337 19.485.337-4.236.337-12.697.67-2.104.337 1.078.337 9.826.337-.96.337-3.384.337-7.685.334 8.218.337-3.645.337 2.382.337-2.27.674 3.351.337 10.53.334 1.488.337-8.121.336 14.25.674-4.512.337-5.092.337 5.446.334-3.934.337 3.097.337 4.403.337-8.171.337-.009.337-4.605.337 9.222.67-6.28.337.922.337 7.242.337-13.969.337 3.15.337 8.411.334.706.337-1.043.337-10.623.337 13.377.337-1.635.337 4.207.334-1.77.336.578.337-17.25.337 7.418.337 10.459 1.008-9.7.674 6.234.337 5.684.337.035.337-4.878.337 10.632.333-8.52.337 2.001.337-7.11 1.011 26.645.337-4.986.334-9.733.337 3.238.337-.035.337 10.057.337-.928.337-9.58.336 17.068" transform="scale(1.33333)"/></g><path style="fill:none;stroke-width:1.5;stroke-linecap:butt;stroke-linejoin:round;stroke:green;stroke-opacity:1;stroke-dasharray:9.6,2.4,1.5,2.4;stroke-miterlimit:4" d="m57.208 74.414.337 3.237.337.856.337-1 .334-2.109.337 1.58.337-7.58.336-11.428.337 2.089.337-15.384.337 5.815.671 27.343.337-.331.337-1.406.337-14.27.337 1.88.337-6.498.334-3.794.337 5.51.337-10.215.336-5.127.674-2.112.337 5.428.334 26.45.674 3.7.337-.252.337-1.07.337-8.036.334 7.357.337 2.733.337-.351.336-2.423.337-11.312.337-6.266.337.184.334-3.685.337-5.262.337-.217.337-1.491.337 12.416.337 3.897.67-14.649.338-9.26.336.565.337-5.25.337 9.987.337-2.502.337-4.075.334-.832.337-5.868.337 22.77.337-14.94.337 10.586.337-12.955.337-.302.334-10.201.336-2.854.337 3.633.337 5.145.337.928.337.238.334-.42.337-2.331.337 1.028.337 6.882.337 1.031.337-2.335.337-14.446.334.694.337 3.566.336-2.965.674-.349.674 3.645.334 7.766.337-9.064.337-3.97.337-.542.337.43.337.24.337 4.387.334-2.523.673 1.377.337-.334.337 1.368.337-2.188.337-.806.334.346.337-1.802.337 2.666.337-.926.337 1.207.337-2.507.334-.176.336-.996.674 4.94.337-2.784.337.09.337 3.244.67 12.41.338-11.25.337-4.728.337-.551.337-.015.337-.477.333-.92.337.058.674 1.582.337-1.224.337 1.675.337 4.07.334-2.83.337 2.856.337 8.444.337-7.158.674-6.474.67-.27.337.955.337 2.157.337-1.597.337-2.865.337.99.334 1.55.337-.024.337 3.405.337-.13.337-1.745.337-.428.336-.692.334-.061.337-1.023.674.097.337-.908.337.351.337-.536.334.741.337-2.08.337 1.005.337-.583.337.472.336-1.072.337 1.409.671-.525.337-1.177.337 3.058.337-.958.337-.515.334.231.337-1.933.337-.185.337.275.337.106.337.814.336.035.334 1.559.337-.413.337 2.256.337-1.896.337 2.91.337-1.738.337-.773.67-2.819.338 2.171.337.95.337-1.656.336 1.907.337-1.268.334-.047.337.993.337-1.679.337.762.337.126.337-1.983.67 1.01.675-2.337.337.609.336-.08.337.566.334-.304.337.594.337-.152.337.246.337-.378.337 1.4.337 2.558.334-1.037.337-.51.337.334.674-2.798.336 2.857.337-.656.334-1.076.337.832.337 1.284.674 1.157.337.258.337-.595.334-.946.337.208.337-1.09.337.981.336 2.9.337-.98.334 7.678.337-7.778.337-1.366.337 1.82.337-1.896.337 5.095.337-2.728.334 1.026.337 2.212.337 7.66.337-8.768.336.273.337-2.713.337 4.286.334-1.781.337 8.34.337 3.672.337 8.208.337-19.09.337 2.89.67 8.378.338 9.158.337-5.882.673-1.996.337-.556.337 5.81.334-4.334.337 5.133.337-2.85.337-14.461.337 6.74.337-2.472.334 2.71.337 8.792.337-.67.337-7.89.336-4.826.337-2.75.337.91.334 8.362.337 3.946.674-7.482.337-5.86.337 11.274.337-2.575.334 12.674.337-10.57.337-3.587.336 10.518.337 3.094.337 8.132.337-8.376.334-.087.337 3.773.337-6.24.674-3.393.337-.04.337-1.776.334.102.337-1.054.336 1.722.337 7.588.337 2.974.337-2.104.334 5.066.337 17.144.337 2.364.337.838.337-1.6.337 1.732.337-.556.334.243.337-1.052.336.812.337-.188.337.123.337.43.337 1.858.334-.811.337-1.363.337-17.695.337 2.323.337 15.563.337-1.014.337 1.406.334-.354.337-2.265.336-11.66.337 1.948.337 11.827.337 1.23.334.039.337.293.337.079.337-.521.337-1.896.337.53.337 1.327.334.82.337-.527.336 1.073.337-.736.337.95.337 9.952.337 5.686.334-.184.337-1.664.674-12.56.337-.603 1.008 11.343.336-2.077.337-4.157.337-2.373.337 1.998.337-6.065.337-.577.334.501.337 9.806.337 6.09.337-2.469.337 4.679.337-.747.334.676.337-.641.336.032.337-.78.337-4.49.337 2.625.337 8.039.334.07.674 6.498.337-1.084.674-16.605.337 9.726.334-2.089.336 4.19.337 6.19.337-3.36.337-5.69.337 2.045.337 7.134.334 1.436.337-1.735.337-8.988.337-5.868.337.363.673 10.113.334.783.337 4.315.337-1.45.337 1.969.337 8.188.337 3.6.334-.615.337-2.909.337-1.13.674-10.126.337-.454.337 9.618.333 2.857.337-1.64.337-5.163.337 9.152.337 4.319.337-1.518.337-7.646.334-3.27.337 2.282.674 2.9.337.41.337 2.406.336 5.148.671-11.092.337 2.86.337-3.704.337.522.337 3.709.337-1.12.334-.436.337 6.483.337 1.946.337 5.704.337-.759.336 1.143.334 4.713.337-4.441.337-.826.337-7.184.337-3.507.337-1.113.337-2.736.334 1.128.337-4.673.337 3.249.337-4.94 1.344 18.501.674-10.535.337 4.067 1.01-9.71.335-.304.337-1.169.337 2.646.337 4.248.337-3.961.336 4.218.334.917.337-.199.337 4.987.337 2.235.337 5.01.337-2.956.337 2.522.334.226.337.905.337 2.912.337 1.392.337.855.673-17.385.334-1.365.337.95.337 4.69.337-2.332.337-6.179.337 2.997.337-2.11.334 2.166.337 6.712.337-4.831.337 3.876.336 1.971.337-3.252.671 5.936.337.401.337 2.56.337-.201.674-5.256.334-5.804.337.89.337 2.339.337-3.707.336 5.388.674-6.322.334.158.337.979.674 13.224.674-8.46.337.266.334 1.227.337 5.092.337-3.228.337-1.073.336 5.54.337-1.11.337 1.82.334 1.174.337-5.786.337-2.818.674-10.635.337-.577.67 9.284.338.273.337-.501.673-4.577.337 4.436.334-7.122.674-3.56.337-5.786.674 6.577.337 3.085.334-3.996.337 2.45.337 4.488.336-.58.337 1.262.337.246.337-.512.334 1.295.337.553.337-2.018.337-5.291.337-2.502.337-7.77.337-2.976.334 5.273.337 2.194.337 6.794.336 3.51.337-7.02.337 3.027.334 1.16.337 2.121.337-11.844.337 1.71.337 4.351.337 7.254.67-7.29.675-11.917.336-2.634.337 3.173.337 5.654.337-2.358.334-.689.337-2.01.337.628.337 1.913.337-3.399.337-.864.337 4.734.334-1.016.337 6.597.336 2.655.674-10.588.674 12.217.334 5.923.674-19.672.337-2.101.337-5.027.337 4.207.334-4.04.337-9.112.336-.293.337-2.417 1.011 16.369.334-1.533.337.794.674-.606.337 3.061 1.008-12.653.337.249.336 4.767.337-.282.337-5.962.337-8.094.337-.993.334.067.337-.463.337.53.337 3.434.337-1.957.337-.598.67 2.863.337 1.892.337 4.57.337-1.907.337 1.131.671 4.233.337-1.725.337-11.918.674.735.337-2.302.337.12.334.489.336 1.002.674-.15.337.58.337-1.101.337-.636.334.202.337-1.03.337 1.66.337-1.438.337.14 1.007 2.066.337-.589.337-1.966.674.759.337-2.575.334 2.039.337.433.337.953.337-1.023.337.741.337-.785.337.278.334-.767.336.814.337-14.285.337-4.321.337-1.24.337 19.354.337-.521.334-13.032.337-3.313.337.316.337 14.236.337-16.632.337 2.748.336-3.66.334-1.385.337.36.337.528.337 5.27.337 14.54.337-14.472.337-5.49.334-3.484.337-2.215.337-6.89.337-.994.673 4.023.334 3.164.337-.211.337 4.09.337-3.607.337.003.337.71.337-13.7.334 10.986.337-7.582.674-5.575.337 5.247.337-8.628.336 6.654.334-.487.337-5.619.337 9.094.337-8.76.337 12.686.337-5.722.337 3.152.334-10.71.337 6.647.337-11.936.337 4.767.337-1.62.336 4.233.337 8.965.334-5.121.337-.768.337.61.337-5.713.337-3.733.337 16.114.334-9.457.337 3.02.337-6.586.337.293.337-1.26.336-2.797.337 4.467.334-3.656.337 4.14.337 1.919.337 4.06.337-13.837.337.12.337-1.318.334-.2.337 1.079.337.214.337-2.142.337-.75.336 1.046.337.627.334 1.16.337 3.692.337-3.39.337-1.081.337 3.507.337-3.838.337 5.645.334-5.683.337 7.465.337-4.711.337-3 .336-1.36.337-.65.334 1.31.337.357.337 2.76.674-2.69.337-1.295.337-.571.334 1.398.337-.534.337.027.337-1.184.336.929.337-.68.337.006.334.87.337-.712.337 1.207.337-.498.337-2.256.337 2.212.337-1.213.334.94.337-1.244.337.747.336-.443.337-1.122.337-.392.671 3.594.337-1.204.337 1.219.674-2.405.337-.838.334.767.337 1.19.337-.381.673.252.337 3.264.337-2.092.334.097.674-.973 1.01 2.71.338-.61.334 1.465.337.56.337-1.729.336-1.025.337-1.969.337 1.714.337-2.308.334 3.416.674-2.983.337 1.855.337-1.404.337-.363.334 3.31.337-1.977.337 4.24.336-2.383.337-1.277.674 1.942.334.07.337-.283.337 1.72.337-2.098.337-1.134.337.735.337-1.775.334 3.061.673-1.133.337 1.752.337-2.11.337-.047.337-2.622.334 1.509.337-1.02.337 1.04.337-.125.337-2.083.337 2.062.337-.357.334-.914.673-.07.337.617.337 1.076.337-.71.334.24.337-1.892.674 3.264.337-.694.337 1.898.337.147.334 1.71.337-2.32.336-.674.337-.943.337 2.57.337-1.278.337 12.018.334-7.237.337-2.818.337 1.878.674-5.162.337-.176.337.202.334 2.813.336-2.775.337-1.731.337 2.127.337 5.46.337 1.656.334 10.749.337-14.854.337 16.553.337-1.755.337-12.249.337-2.642.337-1.69.334.57.337 9.211.336.903.337-3.25.337-6.875.337 4.271.337-2.2.334 2.476.337-1.87.337.961.337 1.867.337 11.733.337 3.873.337-7.617.334 13.48.336-.636.337-1.653.337-5.716.337 3.65.337-3.31.337 3.46.334 5.11.337-8.019.337-1.043.337-5.856.337 8.909.67-4.611.337.055.337 7.14.337-13.14.337 1.535.337 7.743.337 3.077.334.483.337-11.877.337 11.189.337.51.337 5.721.337-1.12.337-.339.333-18.14.337 4.435.337 11.947.337-1.125.337-2.528.337-5.224.337 1.916.334 4.093.337 7.406.337 1.366.337-5.122.337 10.747.337-7.884.336.805.334-7.344.337 7.016.337 18.689.337 3.691.337-.603.337-13.105.334 4.081.337 5.78.337 3.449.337.26.337-2.674.337 3.445" transform="scale(1.33333)"/><g clip-path="url(#p)"><path style="fill:none;stroke-width:1.5;stroke-linecap:butt;stroke-linejoin:round;stroke:red;stroke-opacity:1;stroke-dasharray:1.5,2.475;stroke-miterlimit:4" d="m73.36 78.258 2.018-.015.337-29.423.337 5.827.337-32.46.337 5.75.334 47.801.336 2.529.674-.006.337-18.642.337 5.804.334-18.72.337-10.644.337 15.407.337-26.47.337-3.17.674-.474.334 1.962.337 54.94 3.029.004.337-12.967.337-17.98.337.504.67-22.88.337-.255.337-1.322.337 29.373.337 10.928.671-38.771.337-3.83.337.065.337-.41.337 1.459.67-1.24.337-.067.337-.272.337 17.496.337-17.045.337 5.528.337-5.736.334-.02.337-.337.337-.06 1.348.241 1.007-.058.337.377.337.109.337-.22.337-.463 2.353.097.336.237.337-.263.674-.094 5.048.07 1.008-.076 1.01.044.674.07.334.197.337.363.337-.533.674-.112 3.7.1.337.275.337-.249 1.008-.137 2.692.02.674.07 1.682-.085 11.103-.029.674.018 2.019.017 1.347-.058 3.027.003 5.048.061 4.037.035 1.01-.029.337.108.671-.038.337.047.337.287.337-.31 1.345.003.673.612.337 3.228.337-3.817.671.234.337.405.337 4.869.337-4.213.674-.454.337-.094.334 2.001.337-1.723.336 2.338.674-3.337.337.29.337-.143.334.161.337 1.96.337-.331.337-1.611.337-.255.674-.056.334.469.337.67.336-.638.674-.527.337.741.334-.316.337 8.92.337-8.671.337-.372.337 2.976.337 4.562.337 22.796.334-23.32.337-.215.336 10.366.337-13.902.337-1.25.337-.754.337-.014.334-.504.337.023.337-.22.337.387.674 15.926.337-5.871.334 14.162.336 32.253 4.711.009.337-25.843.337 6.477.337 19.366 1.345-.006.337-14.646.337 14.581.674.074 4.037.005.337 5.127.336 9.358.334-.194.337-2.771.337-10.295.337-1.222.674.036.334 1.268.337 7.175.337-3.352.337-5.01.337-.105.337.067.67-.087.337.003.337 2.76.337 10.942.337-4.037.337 7.544.337-.953.334.824.337-.777.337-.167.337-1.113.337-7.444.337 4.207.336 13.254.334.213.674 10.72.337-1.846.674-27.251.337 15.673.334-2.976.337 6.378.337 10.652.337-5.692.337-9.246.336 3.17.334 11.832.337 2.32.337-2.747.674-24.507.337.589.67 16.62.338 1.304.337 7.04.337-2.195.337 2.992.336 13.564.337 5.959.334-.973.337-4.722.337-1.928.674-16.682.337-.712.337 15.575.334 5.018.337-2.856.337-8.239.337 14.567.337 7.573.336-2.774.334-12.185.337-5.754.337 3.888.674 4.74.337.671.337 3.914.334 8.443.674-18.202.337 4.72.337-5.98.336.616.337 6.278.334-1.875.337-.747.337 10.585.337 3.375.337 9.135.337-.867.337 1.55.334 7.942.337-7.257.337-1.494.337-11.534.336-6.112.337-1.632.337-4.631.334 1.854.337-7.553.337 5.051.337-7.702.674 17.28.334 7.857.337 5.159.674-17.347.336 6.48.674-8.654.334-6.993.337-.846.337-1.67.337 4.063.337 7.198.337-6.507.337 6.748.334 1.78.337-.556.337 8.28.337 3.717.336 8.127.337-4.579.337 3.82.334.7.337 1.193.337 4.99.674 3.667.674-28.596.334-2.253.337 1.476.337 7.661.336-3.615.337-10.257.337 4.817.334-3.27.337 3.258.337 11.226.337-7.828.337 6.062.337 3.598.337-5.55.67 9.839.338.609.336 4.204.337-.223.674-8.683.334-9.466.337 1.233.337 4 .337-6.106.337 8.672.337-4.113.337-6.238.334.443.337 1.467.673 21.791.674-13.907.334.519.337 1.901.337 8.358.337-5.08.337-1.998.337 9.176.337-1.74.67 4.96.338-9.53.336-4.726.674-17.534.337-.894.671 15.235.337.45.337-.784.674-7.559.337 7.207.334-11.396.673-5.892.337-9.756.674 10.87.337 4.948.334-6.314.337 3.712.337 7.608.337-1.051.337 2.112.337.451.334-.885.337 2.113.336.96.337-3.307.337-8.654.337-4.213.337-12.6.334-5.19.337 8.737.337 3.624.337 11.036.337 6.012.337-11.505.337 4.723.334 2.197.337 3.187.336-18.958.337 2.14.337 7.675.337 11.385.671-11.801 1.01-23.707.338 4.983.337 9.41.337-3.805.334-1.213.336-3.176.337.838.337 3.258.337-5.552.337-1.512.334 7.758.337-1.538.337 10.564.337 4.735.674-17.432.67 20.077.337 9.402.674-32.198.337-3.251.337-8.406.337 6.768.334-6.308.337-14.25.674-.199.337 4.052.337 10.681.337 6.797.333-2.159.337.993.337-.176.337-.776.337 5.145 1.008-21.31.337.415.337 8.241.337-.351.337-10.635.337-.938 3.363.039.337 3.02.337-2.599.337.83.67 8.083.337-2.658.337-6.717 11.104-.006.674-27.604.337-3.48.336 31.084.337-.003.334-14.801.337-9.296.337.879.337 23.215.337-29.898.337 7.664.334-10.239.337-3.885.337 1 .337 1.476.673 33.885.671-34.295.337-9.77.674-12.352.337-.255.337.504.337 1.072.334 3.486.337-.36.337 10.603.337-9.712.337-.003.336 1.605.337-7.928.334 3.455.337-3.106.337-.34.337-.14.337.433.337-.562.337.348.334-.04.337-.29.337.694.337-.683.336 1.734.337-1.295.334.507.337-.967.337.367.337-.487.337.106.337-.041.337.132.334.97.337-.742.674-.014.336-.288.337-.087.337 1.523.334-1.321.337.193.337-.325 2.356.108.336.267.337-.522 7.067-.061 1.008.02.673.035 1.682-.052 33.314.044.334.342.336-.243 1.348-.129 2.019.01.673.149.334.694.337-.78.337 1.088.337-.317.337-.718 1.008-.079.337.235.337.04.674-.275.337.088 1.007-.032.674.061.337.885.337 1.257.334-1.755.337 10.357.337-1.746.674-7.69.337 1.795.336-1.693.334 1.825.337 10.063.337-11.695.337-.343.337-.92.337 2.227.67-1.673.338.009.337 4.166.337-4.843.337.106.336 1.555.337 2.206.334.595.337-4.4.337 3.574.337.586.337 13.963.337-3.126.334-.967.337-14.16.337.329.337 8.86 1.01-8.386.334.513.337 2.552.337 18.073.337 3.844.337-14.33.337 30.065.337-22.052.334 2.236.337-17.85.337 16.91.337 36.77.673.009.337-2.165.334 2.138 1.685.03" transform="scale(1.33333)"/></g><path style="fill:none;stroke-width:.8;stroke-linecap:square;stroke-linejoin:miter;stroke:#000;stroke-opacity:1;stroke-miterlimit:4" d="M52.16 170.28V7.2M386.962 170.28V7.2M52.16 170.28h334.802M52.16 7.201h334.802" transform="scale(1.33333)"/><use xlink:href="#q" mask="url(#r)"/><path style="fill:none;stroke-width:1.5;stroke-linecap:square;stroke-linejoin:round;stroke:#1f77b4;stroke-opacity:1;stroke-miterlimit:4" d="M61.16 111.665h20.001" transform="scale(1.33333)"/><path style="stroke:none;fill-rule:nonzero;fill:#000;fill-opacity:1" d="M120.535 152.45h2.149v-7.419l-2.336.469v-1.2l2.324-.468h1.312v8.617h2.149v1.106h-5.598ZM128.016 149.371h3.507v1.066h-3.507ZM138.078 146.477v1.132a4.655 4.655 0 0 0-1.05-.386 4.741 4.741 0 0 0-1.137-.133c-.594 0-1.04.09-1.336.273-.297.18-.446.457-.446.82a.78.78 0 0 0 .317.657c.215.156.64.308 1.285.45l.41.093c.852.18 1.453.437 1.813.77.359.331.539.796.539 1.39 0 .676-.27 1.215-.805 1.61-.535.394-1.273.593-2.211.593-.39 0-.797-.039-1.223-.117a10.49 10.49 0 0 1-1.336-.34v-1.238c.442.23.88.402 1.309.52.43.113.856.167 1.277.167.563 0 .996-.093 1.301-.289a.909.909 0 0 0 .453-.816c0-.324-.11-.574-.328-.746-.219-.176-.7-.344-1.441-.504l-.418-.098c-.738-.156-1.278-.394-1.606-.719-.332-.324-.496-.765-.496-1.332 0-.683.246-1.214.73-1.586.485-.375 1.176-.558 2.071-.558.441 0 .86.031 1.25.097.39.063.75.16 1.078.29ZM141.563 144.191v2.07h2.468v.934h-2.469v3.957c0 .594.083.977.247 1.145.16.172.492.254.992.254h1.23v1.004h-1.23c-.926 0-1.563-.172-1.914-.516-.352-.348-.528-.976-.528-1.887v-3.957h-.879v-.933h.88v-2.07ZM151.844 149.61v.585h-5.508c.05.825.3 1.453.746 1.883.445.434 1.063.649 1.86.649.456 0 .902-.055 1.335-.168.434-.114.86-.282 1.29-.508v1.133c-.434.183-.876.32-1.325.418-.453.093-.91.144-1.375.144-1.164 0-2.082-.34-2.762-1.016-.68-.68-1.02-1.593-1.02-2.75 0-1.195.321-2.14.966-2.84.644-.702 1.515-1.05 2.61-1.05.98 0 1.757.312 2.327.945.57.633.856 1.488.856 2.574Zm-1.2-.352c-.007-.656-.19-1.176-.546-1.567-.36-.394-.836-.59-1.426-.59-.668 0-1.203.192-1.602.567-.402.379-.632.91-.695 1.598ZM154.969 152.46v3.868h-1.207v-10.066h1.207v1.11c.25-.435.57-.759.953-.966.383-.21.844-.316 1.379-.316.883 0 1.605.347 2.156 1.05.555.704.832 1.63.832 2.774 0 1.149-.277 2.07-.832 2.777-.55.704-1.273 1.055-2.156 1.055-.535 0-.996-.11-1.38-.32a2.487 2.487 0 0 1-.952-.965Zm4.074-2.546c0-.879-.18-1.57-.543-2.07-.363-.504-.86-.754-1.492-.754-.637 0-1.133.25-1.496.754-.364.5-.543 1.191-.543 2.07 0 .883.18 1.574.543 2.074.363.5.86.75 1.496.75.633 0 1.129-.25 1.492-.75s.543-1.191.543-2.074ZM167.668 152.46v3.868h-1.203v-10.066h1.203v1.11c.254-.435.574-.759.957-.966.383-.21.844-.316 1.375-.316.887 0 1.605.347 2.16 1.05.555.704.832 1.63.832 2.774 0 1.149-.277 2.07-.832 2.777-.555.704-1.273 1.055-2.16 1.055-.531 0-.992-.11-1.375-.32-.383-.211-.703-.531-.957-.965Zm4.078-2.546c0-.879-.18-1.57-.543-2.07-.363-.504-.86-.754-1.492-.754-.637 0-1.137.25-1.496.754-.363.5-.547 1.191-.547 2.07 0 .883.184 1.574.547 2.074.36.5.86.75 1.496.75.633 0 1.129-.25 1.492-.75s.543-1.191.543-2.074ZM179.2 147.383a1.526 1.526 0 0 0-.438-.172 2.22 2.22 0 0 0-.524-.055c-.68 0-1.199.219-1.562.66-.363.438-.543 1.07-.543 1.899v3.84h-1.203v-7.293h1.203v1.133c.254-.442.582-.77.984-.985.403-.215.895-.32 1.473-.32.082 0 .172.004.273.015.098.008.211.024.332.047ZM186.395 149.61v.585h-5.508c.05.825.3 1.453.746 1.883.441.434 1.062.649 1.855.649.461 0 .907-.055 1.34-.168.43-.114.86-.282 1.285-.508v1.133c-.43.183-.87.32-1.32.418-.453.093-.91.144-1.375.144-1.164 0-2.086-.34-2.762-1.016-.68-.68-1.02-1.593-1.02-2.75 0-1.195.321-2.14.966-2.84.644-.702 1.515-1.05 2.609-1.05.98 0 1.758.312 2.328.945.57.633.856 1.488.856 2.574Zm-1.2-.352c-.007-.656-.191-1.176-.55-1.567-.356-.394-.833-.59-1.422-.59-.668 0-1.203.192-1.606.567-.398.379-.629.91-.691 1.598ZM193.156 147.371v-3.95h1.2v10.134h-1.2v-1.094c-.25.434-.566.754-.953.965-.383.21-.844.32-1.383.32-.879 0-1.597-.351-2.152-1.055-.555-.707-.828-1.629-.828-2.777 0-1.144.273-2.07.828-2.773.555-.703 1.273-1.051 2.152-1.051.54 0 1 .105 1.383.316.387.207.703.531.953.965Zm-4.078 2.543c0 .883.18 1.574.543 2.074.363.5.86.75 1.492.75.633 0 1.133-.25 1.496-.75.368-.5.547-1.191.547-2.074 0-.879-.18-1.57-.547-2.07-.363-.504-.863-.754-1.496-.754s-1.129.25-1.492.754c-.363.5-.543 1.191-.543 2.07ZM201.473 146.477v1.132c-.34-.172-.692-.3-1.055-.386a4.709 4.709 0 0 0-1.133-.133c-.597 0-1.043.09-1.34.273-.297.18-.445.457-.445.82 0 .278.105.497.32.657.211.156.64.308 1.282.45l.41.093c.851.18 1.457.437 1.812.77.36.331.54.796.54 1.39 0 .676-.27 1.215-.805 1.61-.536.394-1.274.593-2.211.593-.391 0-.797-.039-1.22-.117a10.377 10.377 0 0 1-1.339-.34v-1.238c.445.23.879.402 1.309.52.43.113.855.167 1.277.167.563 0 .996-.093 1.3-.289a.912.912 0 0 0 .458-.816c0-.324-.11-.574-.332-.746-.215-.176-.696-.344-1.442-.504l-.414-.098c-.742-.156-1.277-.394-1.61-.719-.327-.324-.491-.765-.491-1.332 0-.683.242-1.214.726-1.586.489-.375 1.176-.558 2.07-.558.442 0 .86.031 1.25.097.391.063.75.16 1.083.29Zm0 0"/><path style="fill:none;stroke-width:1.5;stroke-linecap:butt;stroke-linejoin:round;stroke:#bf00bf;stroke-opacity:1;stroke-dasharray:5.55,2.4;stroke-miterlimit:4" d="M61.16 126.343h20.001" transform="scale(1.33333)"/><path style="stroke:none;fill-rule:nonzero;fill:#000;fill-opacity:1" d="m123.922 164.55-3.32 5.188h3.32Zm-.348-1.144h1.656v6.332h1.387v1.094h-1.387v2.293h-1.308v-2.293h-4.387v-1.266ZM128.016 168.941h3.507v1.067h-3.507ZM138.078 166.047v1.137a4.741 4.741 0 0 0-2.188-.523c-.593 0-1.038.089-1.335.273-.297.183-.446.457-.446.82a.78.78 0 0 0 .317.656c.215.156.64.309 1.285.45l.41.093c.852.18 1.453.438 1.813.77.359.332.539.797.539 1.39 0 .676-.27 1.215-.805 1.61-.535.394-1.273.593-2.211.593-.39 0-.797-.039-1.223-.117a9.873 9.873 0 0 1-1.336-.34v-1.238c.442.23.88.402 1.309.52.43.113.856.172 1.277.172.563 0 .996-.098 1.301-.293a.909.909 0 0 0 .453-.817c0-.324-.11-.574-.328-.746-.219-.176-.7-.34-1.441-.504l-.418-.098c-.738-.156-1.278-.394-1.606-.718-.332-.325-.496-.766-.496-1.328 0-.688.246-1.22.73-1.59.485-.375 1.176-.559 2.071-.559.441 0 .86.031 1.25.098.39.062.75.16 1.078.289ZM141.563 163.762v2.07h2.468v.934h-2.469v3.957c0 .593.083.976.247 1.148.16.168.492.254.992.254h1.23v1h-1.23c-.926 0-1.563-.172-1.914-.516-.352-.347-.528-.976-.528-1.886v-3.957h-.879v-.934h.88v-2.07ZM151.844 169.18v.586h-5.508c.05.824.3 1.453.746 1.886.445.43 1.063.645 1.86.645.456 0 .902-.055 1.335-.168.434-.113.86-.281 1.29-.508v1.133c-.434.184-.876.32-1.325.418-.453.094-.91.144-1.375.144-1.164 0-2.082-.34-2.762-1.015-.68-.68-1.02-1.594-1.02-2.75 0-1.196.321-2.14.966-2.84.644-.703 1.515-1.05 2.61-1.05.98 0 1.757.316 2.327.944.57.633.856 1.489.856 2.575Zm-1.2-.352c-.007-.656-.19-1.176-.546-1.566-.36-.39-.836-.59-1.426-.59-.668 0-1.203.191-1.602.566-.402.38-.632.91-.695 1.598ZM154.969 172.031v3.867h-1.207v-10.066h1.207v1.11c.25-.434.57-.758.953-.965.383-.211.844-.317 1.379-.317.883 0 1.605.352 2.156 1.055.555.7.832 1.625.832 2.77 0 1.148-.277 2.074-.832 2.777-.55.703-1.273 1.054-2.156 1.054-.535 0-.996-.105-1.38-.316-.382-.21-.702-.535-.952-.969Zm4.074-2.547c0-.879-.18-1.57-.543-2.07-.363-.504-.86-.754-1.492-.754-.637 0-1.133.25-1.496.754-.364.5-.543 1.191-.543 2.07 0 .883.18 1.575.543 2.075.363.5.86.754 1.496.754.633 0 1.129-.254 1.492-.754s.543-1.192.543-2.075ZM167.668 172.031v3.867h-1.203v-10.066h1.203v1.11c.254-.434.574-.758.957-.965.383-.211.844-.317 1.375-.317.887 0 1.605.352 2.16 1.055.555.7.832 1.625.832 2.77 0 1.148-.277 2.074-.832 2.777-.555.703-1.273 1.054-2.16 1.054-.531 0-.992-.105-1.375-.316-.383-.21-.703-.535-.957-.969Zm4.078-2.547c0-.879-.18-1.57-.543-2.07-.363-.504-.86-.754-1.492-.754-.637 0-1.137.25-1.496.754-.363.5-.547 1.191-.547 2.07 0 .883.184 1.575.547 2.075.36.5.86.754 1.496.754.633 0 1.129-.254 1.492-.754s.543-1.192.543-2.075ZM179.2 166.953a1.526 1.526 0 0 0-.438-.172 2.446 2.446 0 0 0-.524-.054c-.68 0-1.199.218-1.562.66-.363.437-.543 1.07-.543 1.898v3.84h-1.203v-7.293h1.203v1.137c.254-.446.582-.774.984-.989.403-.214.895-.32 1.473-.32.082 0 .172.004.273.016.098.008.211.023.332.047ZM186.395 169.18v.586h-5.508c.05.824.3 1.453.746 1.886.441.43 1.062.645 1.855.645.461 0 .907-.055 1.34-.168.43-.113.86-.281 1.285-.508v1.133c-.43.184-.87.32-1.32.418-.453.094-.91.144-1.375.144-1.164 0-2.086-.34-2.762-1.015-.68-.68-1.02-1.594-1.02-2.75 0-1.196.321-2.14.966-2.84.644-.703 1.515-1.05 2.609-1.05.98 0 1.758.316 2.328.944.57.633.856 1.489.856 2.575Zm-1.2-.352c-.007-.656-.191-1.176-.55-1.566-.356-.39-.833-.59-1.422-.59-.668 0-1.203.191-1.606.566-.398.38-.629.91-.691 1.598ZM193.156 166.941v-3.945h1.2v10.129h-1.2v-1.094c-.25.434-.566.758-.953.969-.383.21-.844.316-1.383.316-.879 0-1.597-.351-2.152-1.054-.555-.703-.828-1.63-.828-2.778 0-1.144.273-2.07.828-2.77.555-.702 1.273-1.054 2.152-1.054.54 0 1 .106 1.383.317.387.207.703.53.953.964Zm-4.078 2.543c0 .883.18 1.575.543 2.075.363.5.86.754 1.492.754.633 0 1.133-.254 1.496-.754.368-.5.547-1.192.547-2.075 0-.879-.18-1.57-.547-2.07-.363-.504-.863-.754-1.496-.754s-1.129.25-1.492.754c-.363.5-.543 1.191-.543 2.07ZM201.473 166.047v1.137a4.58 4.58 0 0 0-1.055-.391 4.709 4.709 0 0 0-1.133-.133c-.597 0-1.043.09-1.34.274-.297.183-.445.457-.445.82 0 .277.105.496.32.656.211.156.64.309 1.282.45l.41.093c.851.18 1.457.438 1.812.77.36.332.54.797.54 1.39 0 .676-.27 1.215-.805 1.61-.536.394-1.274.593-2.211.593-.391 0-.797-.039-1.22-.117a9.775 9.775 0 0 1-1.339-.34v-1.238c.445.23.879.402 1.309.52.43.113.855.172 1.277.172.563 0 .996-.098 1.3-.293a.912.912 0 0 0 .458-.817c0-.324-.11-.574-.332-.746-.215-.176-.696-.34-1.442-.504l-.414-.098c-.742-.156-1.277-.394-1.61-.718-.327-.325-.491-.766-.491-1.328 0-.688.242-1.22.726-1.59.489-.375 1.176-.559 2.07-.559.442 0 .86.031 1.25.098.391.062.75.16 1.083.289Zm0 0"/><path style="fill:none;stroke-width:1.5;stroke-linecap:butt;stroke-linejoin:round;stroke:green;stroke-opacity:1;stroke-dasharray:9.6,2.4,1.5,2.4;stroke-miterlimit:4" d="M61.16 141.023h20.001" transform="scale(1.33333)"/><path style="stroke:none;fill-rule:nonzero;fill:#000;fill-opacity:1" d="M120.535 191.59h2.149v-7.418l-2.336.469v-1.196l2.324-.468h1.312v8.613h2.149v1.105h-5.598ZM131.766 187.313c-.59 0-1.059.203-1.403.605-.343.402-.52.957-.52 1.66 0 .7.177 1.25.52 1.656.344.407.813.61 1.403.61.59 0 1.058-.203 1.402-.61.344-.406.516-.957.516-1.656 0-.703-.172-1.258-.516-1.66-.344-.402-.813-.606-1.402-.606Zm2.609-4.122v1.196a5.097 5.097 0 0 0-1-.356 4.199 4.199 0 0 0-1-.125c-.867 0-1.531.293-1.988.88-.457.585-.719 1.472-.782 2.655.254-.379.575-.668.961-.867a2.705 2.705 0 0 1 1.278-.304c.976 0 1.746.296 2.312.89.57.594.852 1.399.852 2.418 0 .996-.293 1.8-.887 2.402-.59.606-1.375.907-2.355.907-1.125 0-1.985-.43-2.578-1.293-.594-.864-.891-2.114-.891-3.746 0-1.54.363-2.762 1.094-3.676.726-.914 1.707-1.371 2.933-1.371.332 0 .664.031 1 .097.336.067.688.165 1.051.293ZM136.5 188.512h3.508v1.066H136.5ZM146.563 185.621v1.133a4.451 4.451 0 0 0-1.055-.39 4.914 4.914 0 0 0-1.133-.134c-.594 0-1.04.094-1.336.274-.297.184-.445.457-.445.82a.78.78 0 0 0 .316.656c.215.157.64.31 1.285.454l.41.09c.848.183 1.454.437 1.813.769.355.332.535.797.535 1.39 0 .68-.266 1.215-.805 1.61-.535.394-1.27.594-2.207.594-.39 0-.796-.04-1.222-.117a9.728 9.728 0 0 1-1.336-.34v-1.239c.441.23.879.403 1.308.52.426.113.852.172 1.278.172.562 0 .996-.098 1.297-.29.304-.195.457-.468.457-.816 0-.328-.11-.578-.328-.75-.22-.172-.7-.34-1.442-.5l-.418-.101c-.742-.153-1.277-.395-1.61-.719-.327-.32-.491-.766-.491-1.328 0-.688.242-1.215.73-1.59.484-.371 1.176-.559 2.07-.559.442 0 .856.032 1.246.098.395.063.754.16 1.083.293ZM150.047 183.332v2.074h2.465v.93h-2.465v3.957c0 .594.082.977.242 1.148.164.168.496.254.996.254h1.227v1h-1.227c-.926 0-1.562-.172-1.914-.515-.351-.348-.527-.973-.527-1.887v-3.957h-.88v-.93h.88v-2.074ZM160.328 188.75v.586h-5.508c.051.824.301 1.453.743 1.887.445.43 1.066.648 1.859.648.46 0 .906-.059 1.34-.172.43-.11.86-.281 1.285-.508v1.133c-.43.184-.871.32-1.32.418-.454.098-.91.145-1.375.145-1.165 0-2.086-.34-2.766-1.016-.68-.676-1.016-1.594-1.016-2.75 0-1.191.32-2.14.965-2.84.645-.699 1.516-1.05 2.61-1.05.98 0 1.753.316 2.324.945.574.633.86 1.488.86 2.574Zm-1.2-.352c-.007-.652-.19-1.175-.55-1.566-.36-.39-.832-.586-1.422-.586-.668 0-1.203.188-1.605.566-.399.375-.633.907-.692 1.594ZM163.45 191.602v3.867h-1.204v-10.063h1.203v1.106c.254-.434.574-.754.957-.965.383-.211.844-.317 1.375-.317.887 0 1.606.352 2.16 1.055.555.703.832 1.625.832 2.774 0 1.144-.277 2.07-.832 2.773-.554.703-1.273 1.055-2.16 1.055-.531 0-.992-.106-1.375-.317-.383-.21-.703-.535-.957-.968Zm4.077-2.543c0-.883-.18-1.575-.543-2.075-.363-.504-.859-.754-1.492-.754-.637 0-1.137.25-1.496.754-.363.5-.547 1.192-.547 2.075 0 .879.184 1.57.547 2.07.36.504.86.754 1.496.754.633 0 1.13-.25 1.492-.754.364-.5.543-1.191.543-2.07ZM176.152 191.602v3.867h-1.203v-10.063h1.203v1.106c.254-.434.57-.754.953-.965.387-.211.844-.317 1.38-.317.886 0 1.605.352 2.156 1.055.554.703.832 1.625.832 2.774 0 1.144-.278 2.07-.832 2.773-.551.703-1.27 1.055-2.157 1.055-.535 0-.992-.106-1.379-.317-.382-.21-.699-.535-.953-.968Zm4.078-2.543c0-.883-.183-1.575-.542-2.075-.364-.504-.864-.754-1.497-.754-.632 0-1.132.25-1.496.754-.363.5-.543 1.192-.543 2.075 0 .879.18 1.57.543 2.07.364.504.864.754 1.496.754.633 0 1.133-.25 1.496-.754.36-.5.543-1.191.543-2.07ZM187.684 186.523a1.55 1.55 0 0 0-.442-.171 2.393 2.393 0 0 0-.523-.055c-.676 0-1.196.219-1.559.66-.363.441-.543 1.074-.543 1.898v3.84h-1.207v-7.289h1.207v1.133c.25-.445.578-.773.98-.988.407-.215.9-.32 1.477-.32.082 0 .172.003.27.015.101.012.21.027.332.047ZM194.879 188.75v.586h-5.512c.055.824.305 1.453.746 1.887.446.43 1.067.648 1.86.648.46 0 .906-.059 1.336-.172.433-.11.863-.281 1.289-.508v1.133c-.43.184-.871.32-1.325.418-.449.098-.906.145-1.37.145-1.165 0-2.087-.34-2.766-1.016-.68-.676-1.02-1.594-1.02-2.75 0-1.191.324-2.14.969-2.84.644-.699 1.512-1.05 2.61-1.05.98 0 1.753.316 2.324.945.57.633.859 1.488.859 2.574Zm-1.2-.352c-.007-.652-.19-1.175-.55-1.566-.36-.39-.832-.586-1.422-.586-.668 0-1.203.188-1.605.566-.403.375-.633.907-.692 1.594ZM201.64 186.512v-3.946h1.2v10.13h-1.2v-1.094c-.25.433-.57.757-.952.968-.383.211-.844.317-1.383.317-.883 0-1.598-.352-2.153-1.055-.554-.703-.832-1.629-.832-2.773 0-1.149.278-2.07.832-2.774.555-.703 1.27-1.055 2.153-1.055.539 0 1 .106 1.382.317.383.21.704.531.954.965Zm-4.081 2.547c0 .879.183 1.57.543 2.07.363.504.863.754 1.496.754.632 0 1.132-.25 1.496-.754.363-.5.547-1.191.547-2.07 0-.883-.184-1.575-.547-2.075-.364-.504-.864-.754-1.496-.754-.633 0-1.133.25-1.496.754-.36.5-.543 1.192-.543 2.075ZM209.953 185.621v1.133a4.451 4.451 0 0 0-1.055-.39 4.889 4.889 0 0 0-1.132-.134c-.594 0-1.04.094-1.336.274-.297.184-.446.457-.446.82a.78.78 0 0 0 .317.656c.215.157.64.31 1.285.454l.41.09c.852.183 1.453.437 1.813.769.359.332.539.797.539 1.39 0 .68-.27 1.215-.805 1.61-.54.394-1.273.594-2.211.594-.39 0-.797-.04-1.223-.117a9.873 9.873 0 0 1-1.336-.34v-1.239c.442.23.88.403 1.309.52.43.113.856.172 1.277.172.563 0 .996-.098 1.301-.29.3-.195.453-.468.453-.816 0-.328-.11-.578-.328-.75-.219-.172-.7-.34-1.441-.5l-.418-.101c-.742-.153-1.278-.395-1.606-.719-.332-.32-.496-.766-.496-1.328 0-.688.242-1.215.73-1.59.485-.371 1.176-.559 2.071-.559.441 0 .86.032 1.246.098.395.063.754.16 1.082.293Zm0 0"/><path style="fill:none;stroke-width:1.5;stroke-linecap:butt;stroke-linejoin:round;stroke:red;stroke-opacity:1;stroke-dasharray:1.5,2.475;stroke-miterlimit:4" d="M61.16 155.701h20.001" transform="scale(1.33333)"/><path style="stroke:none;fill-rule:nonzero;fill:#000;fill-opacity:1" d="M123.285 206.883c-.594 0-1.058.203-1.406.605-.344.407-.516.957-.516 1.66 0 .7.172 1.25.516 1.66.348.403.812.606 1.406.606.59 0 1.055-.203 1.399-.605.347-.41.52-.961.52-1.66 0-.704-.173-1.254-.52-1.66-.344-.403-.809-.606-1.399-.606Zm2.61-4.121v1.195a5.569 5.569 0 0 0-1-.355 4.224 4.224 0 0 0-1-.125c-.868 0-1.532.293-1.993.878-.457.586-.715 1.473-.78 2.657.253-.375.573-.668.96-.867.39-.204.816-.301 1.277-.301.977 0 1.75.293 2.317.886.566.594.847 1.399.847 2.418 0 1-.293 1.801-.882 2.403-.59.605-1.375.906-2.356.906-1.125 0-1.988-.43-2.582-1.293-.594-.863-.89-2.11-.89-3.746 0-1.535.363-2.762 1.093-3.676.73-.914 1.707-1.37 2.934-1.37.332 0 .664.03 1 .097.34.066.687.164 1.055.293ZM132.402 203.691l-3.32 5.192h3.32Zm-.343-1.144h1.652v6.336h1.39v1.094h-1.39v2.289h-1.309v-2.29h-4.386v-1.269ZM136.5 208.082h3.508v1.066H136.5ZM146.563 205.191v1.133a4.451 4.451 0 0 0-1.055-.39 4.914 4.914 0 0 0-1.133-.133c-.594 0-1.04.094-1.336.273-.297.184-.445.457-.445.82 0 .282.105.497.316.657.215.156.64.308 1.285.453l.41.09c.848.183 1.454.437 1.813.77.355.331.535.796.535 1.39 0 .68-.266 1.215-.805 1.61-.535.394-1.27.593-2.207.593-.39 0-.796-.039-1.222-.113a10.37 10.37 0 0 1-1.336-.344v-1.238c.441.23.879.406 1.308.52.426.113.852.171 1.278.171.562 0 .996-.098 1.297-.289.304-.195.457-.465.457-.816 0-.328-.11-.575-.328-.75-.22-.172-.7-.34-1.442-.5l-.418-.098c-.742-.156-1.277-.398-1.61-.719-.327-.324-.491-.77-.491-1.332 0-.687.242-1.215.73-1.59.484-.37 1.176-.558 2.07-.558.442 0 .856.031 1.246.097.395.063.754.16 1.083.293ZM150.047 202.906v2.07h2.465v.93h-2.465v3.957c0 .598.082.977.242 1.149.164.168.496.254.996.254h1.227v1h-1.227c-.926 0-1.562-.172-1.914-.516-.351-.344-.527-.973-.527-1.887v-3.957h-.88v-.93h.88v-2.07ZM160.328 208.32v.586h-5.508c.051.824.301 1.453.743 1.887.445.43 1.066.648 1.859.648.46 0 .906-.058 1.34-.171.43-.11.86-.282 1.285-.508v1.133a7 7 0 0 1-1.32.417c-.454.098-.91.145-1.375.145-1.165 0-2.086-.34-2.766-1.016-.68-.675-1.016-1.593-1.016-2.75 0-1.191.32-2.14.965-2.84.645-.699 1.516-1.05 2.61-1.05.98 0 1.753.316 2.324.949.574.629.86 1.488.86 2.57Zm-1.2-.351c-.007-.653-.19-1.176-.55-1.567-.36-.39-.832-.586-1.422-.586-.668 0-1.203.188-1.605.567-.399.375-.633.91-.692 1.594ZM163.45 211.172v3.867h-1.204v-10.062h1.203v1.105c.254-.434.574-.754.957-.965.383-.21.844-.316 1.375-.316.887 0 1.606.351 2.16 1.054.555.704.832 1.625.832 2.774 0 1.144-.277 2.07-.832 2.773-.554.703-1.273 1.055-2.16 1.055-.531 0-.992-.105-1.375-.316-.383-.211-.703-.536-.957-.97Zm4.077-2.543c0-.883-.18-1.574-.543-2.074-.363-.5-.859-.754-1.492-.754-.637 0-1.137.254-1.496.754-.363.5-.547 1.191-.547 2.074 0 .879.184 1.57.547 2.07.36.504.86.754 1.496.754.633 0 1.13-.25 1.492-.754.364-.5.543-1.191.543-2.07ZM176.152 211.172v3.867h-1.203v-10.062h1.203v1.105c.254-.434.57-.754.953-.965.387-.21.844-.316 1.38-.316.886 0 1.605.351 2.156 1.054.554.704.832 1.625.832 2.774 0 1.144-.278 2.07-.832 2.773-.551.703-1.27 1.055-2.157 1.055-.535 0-.992-.105-1.379-.316-.382-.211-.699-.536-.953-.97Zm4.078-2.543c0-.883-.183-1.574-.542-2.074-.364-.5-.864-.754-1.497-.754-.632 0-1.132.254-1.496.754-.363.5-.543 1.191-.543 2.074 0 .879.18 1.57.543 2.07.364.504.864.754 1.496.754.633 0 1.133-.25 1.496-.754.36-.5.543-1.191.543-2.07ZM187.684 206.094a1.674 1.674 0 0 0-.442-.172 2.393 2.393 0 0 0-.523-.055c-.676 0-1.196.219-1.559.66-.363.442-.543 1.075-.543 1.899v3.84h-1.207v-7.29h1.207v1.133c.25-.445.578-.773.98-.984.407-.219.9-.324 1.477-.324.082 0 .172.004.27.015.101.012.21.028.332.047ZM194.879 208.32v.586h-5.512c.055.824.305 1.453.746 1.887.446.43 1.067.648 1.86.648.46 0 .906-.058 1.336-.171.433-.11.863-.282 1.289-.508v1.133a6.949 6.949 0 0 1-2.696.562c-1.164 0-2.086-.34-2.765-1.016-.68-.675-1.02-1.593-1.02-2.75 0-1.191.324-2.14.969-2.84.644-.699 1.512-1.05 2.61-1.05.98 0 1.753.316 2.324.949.57.629.859 1.488.859 2.57Zm-1.2-.351c-.007-.653-.19-1.176-.55-1.567-.36-.39-.832-.586-1.422-.586-.668 0-1.203.188-1.605.567-.403.375-.633.91-.692 1.594ZM201.64 206.082v-3.945h1.2v10.129h-1.2v-1.094c-.25.433-.57.758-.952.969-.383.21-.844.316-1.383.316-.883 0-1.598-.352-2.153-1.055-.554-.703-.832-1.629-.832-2.773 0-1.149.278-2.07.832-2.774.555-.703 1.27-1.054 2.153-1.054.539 0 1 .105 1.382.316.383.211.704.531.954.965Zm-4.081 2.547c0 .879.183 1.57.543 2.07.363.504.863.754 1.496.754.632 0 1.132-.25 1.496-.754.363-.5.547-1.191.547-2.07 0-.883-.184-1.574-.547-2.074-.364-.5-.864-.754-1.496-.754-.633 0-1.133.254-1.496.754-.36.5-.543 1.191-.543 2.074ZM209.953 205.191v1.133a4.451 4.451 0 0 0-1.055-.39 4.888 4.888 0 0 0-1.132-.133c-.594 0-1.04.094-1.336.273-.297.184-.446.457-.446.82 0 .282.106.497.317.657.215.156.64.308 1.285.453l.41.09c.852.183 1.453.437 1.813.77.359.331.539.796.539 1.39 0 .68-.27 1.215-.805 1.61-.54.394-1.273.593-2.211.593-.39 0-.797-.039-1.223-.113a10.536 10.536 0 0 1-1.336-.344v-1.238c.442.23.88.406 1.309.52.43.113.856.171 1.277.171.563 0 .996-.098 1.301-.289.3-.195.453-.465.453-.816 0-.328-.11-.575-.328-.75-.219-.172-.7-.34-1.441-.5l-.418-.098c-.742-.156-1.278-.398-1.606-.719-.332-.324-.496-.77-.496-1.332 0-.687.242-1.215.73-1.59.485-.37 1.176-.558 2.071-.558.441 0 .86.031 1.246.097.395.063.754.16 1.082.293Zm0 0"/></svg>